<svg width="166" height="166" viewBox="0 0 166 166" fill="none" xmlns="http://www.w3.org/2000/svg">
<g clip-path="url(#clip0)">
<path d="M122.059 163.568H19.412C16.1245 163.568 13.4597 160.903 13.4597 157.616V21.6416C13.4597 18.354 16.1248 15.6893 19.412 15.6893H122.059C125.346 15.6893 128.011 18.3543 128.011 21.6416V157.616C128.011 160.903 125.346 163.568 122.059 163.568Z" fill="#FFC250"/>
<path d="M122.059 15.689H102.137C105.425 15.689 108.09 18.354 108.09 21.6413V157.616C108.09 160.903 105.424 163.568 102.137 163.568H122.059C125.346 163.568 128.011 160.903 128.011 157.616V21.6416C128.011 18.354 125.346 15.689 122.059 15.689Z" fill="#EAB14D"/>
<path d="M23.1885 151.712V27.5456C23.1885 26.3706 24.141 25.4181 25.316 25.4181H116.154C117.329 25.4181 118.282 26.3706 118.282 27.5456V151.712C118.282 152.887 117.329 153.839 116.154 153.839H25.3163C24.141 153.839 23.1885 152.887 23.1885 151.712Z" fill="#F5F5F5"/>
<path d="M116.155 25.4181H96.2332C97.4081 25.4181 98.3607 26.3706 98.3607 27.5456V151.712C98.3607 152.887 97.4081 153.839 96.2332 153.839H116.155C117.33 153.839 118.282 152.887 118.282 151.712V27.5456C118.282 26.3706 117.33 25.4181 116.155 25.4181Z" fill="#EAEAEA"/>
<path d="M83.3808 9.83939V6.70582C83.3808 4.34518 81.4672 2.43164 79.1066 2.43164H62.3646C60.0039 2.43164 58.0904 4.34518 58.0904 6.70582V9.83939C58.0904 10.8046 57.3077 11.5873 56.3425 11.5873H49.3747C47.0569 11.5873 45.1777 13.4664 45.1777 15.7843V25.4178H96.2941V15.7846C96.2941 13.4668 94.4149 11.5876 92.0971 11.5876H85.1293C84.1634 11.5876 83.3808 10.8049 83.3808 9.83939Z" fill="#C2D0DA"/>
<path d="M35.5647 59.9597V41.2218C35.5647 39.1458 37.2477 37.4628 39.3237 37.4628H58.0616C60.1376 37.4628 61.8206 39.1458 61.8206 41.2218V59.9597C61.8206 62.0357 60.1376 63.7187 58.0616 63.7187H39.3237C37.2474 63.7187 35.5647 62.036 35.5647 59.9597Z" fill="#66B49D"/>
<path d="M35.5647 98.9979V80.26C35.5647 78.1841 37.2477 76.501 39.3237 76.501H58.0616C60.1376 76.501 61.8206 78.1841 61.8206 80.26V98.9979C61.8206 101.074 60.1376 102.757 58.0616 102.757H39.3237C37.2474 102.757 35.5647 101.074 35.5647 98.9979Z" fill="#66B49D"/>
<path d="M35.5647 138.035V119.298C35.5647 117.222 37.2477 115.539 39.3237 115.539H58.0616C60.1376 115.539 61.8206 117.222 61.8206 119.298V138.035C61.8206 140.111 60.1376 141.794 58.0616 141.794H39.3237C37.2474 141.794 35.5647 140.111 35.5647 138.035Z" fill="#66B49D"/>
<path d="M143.083 65.9163L140.696 62.771L131.762 57.1141L128.328 56.5729L82.5852 128.856C81.4815 130.599 80.6716 132.511 80.1882 134.517C85.7538 134.585 90.8054 137.785 93.2471 142.786C94.8533 141.492 96.2361 139.942 97.3397 138.199L143.083 65.9163Z" fill="#FC8086"/>
<path d="M149.541 43.6573L145.681 41.2131C142.672 39.3076 138.687 40.2028 136.783 43.2125L133.243 48.8063L134.372 51.0826L145.114 57.8847L147.998 58.1499L151.54 52.5526C153.444 49.5442 152.549 45.5621 149.541 43.6573Z" fill="#8C9BA6"/>
<path d="M128.334 56.552L133.251 48.7854L148.009 58.1288L143.091 65.8954L128.334 56.552Z" fill="#C9E2E7"/>
<path d="M93.2474 142.786L80.2226 153.282C78.3852 154.763 75.716 153.072 76.2687 150.779L80.1882 134.517C85.7541 134.585 90.8057 137.785 93.2474 142.786Z" fill="#7C8B96"/>
<path d="M55.3286 44.3531C54.2473 43.5565 52.7241 43.788 51.9282 44.87L47.1151 51.4091L45.4694 49.1487C44.679 48.0632 43.1577 47.8233 42.0716 48.614C40.9858 49.4048 40.7462 50.9264 41.5369 52.0122L44.3761 55.9112C45.0084 56.7792 46.0267 57.2989 47.1002 57.3018H47.1086C48.1792 57.3018 49.1963 56.7879 49.8311 55.9255L55.846 47.7539C56.6417 46.672 56.4102 45.1494 55.3286 44.3531Z" fill="black"/>
<path d="M55.3284 84.2408C54.2471 83.4442 52.7239 83.6757 51.928 84.7576L47.115 91.2964L45.4692 89.0363C44.6785 87.9505 43.1579 87.7106 42.0711 88.5013C40.9853 89.2921 40.7457 90.8134 41.5365 91.8992L44.3756 95.7989C45.0075 96.6665 46.0259 97.1865 47.0994 97.1891C47.1023 97.1895 47.1052 97.1895 47.1078 97.1895C48.1784 97.1895 49.1958 96.6752 49.8306 95.8128L55.8455 87.6415C56.6415 86.5596 56.41 85.0367 55.3284 84.2408Z" fill="black"/>
<path d="M55.3284 122.429C54.2471 121.632 52.7239 121.863 51.928 122.945L47.115 129.484L45.4692 127.224C44.6785 126.139 43.1579 125.898 42.0711 126.689C40.9853 127.48 40.7457 129.001 41.5365 130.087L44.3756 133.987C45.0075 134.854 46.0259 135.374 47.0994 135.377C47.1023 135.377 47.1052 135.377 47.1078 135.377C48.1784 135.377 49.1958 134.863 49.8306 134.001L55.8455 125.829C56.6415 124.748 56.41 123.225 55.3284 122.429Z" fill="black"/>
<path d="M73.9306 47.9425H103.991C105.334 47.9425 106.423 46.8538 106.423 45.5102C106.423 44.1667 105.334 43.0779 103.991 43.0779H73.9306C72.5873 43.0779 71.4983 44.1667 71.4983 45.5102C71.4983 46.8538 72.5873 47.9425 73.9306 47.9425Z" fill="black"/>
<path d="M73.9306 58.1039H88.9607C90.304 58.1039 91.393 57.0152 91.393 55.6716C91.393 54.328 90.304 53.2393 88.9607 53.2393H73.9306C72.5873 53.2393 71.4983 54.328 71.4983 55.6716C71.4983 57.0152 72.5873 58.1039 73.9306 58.1039Z" fill="black"/>
<path d="M73.9306 86.9801H94.0996C95.4428 86.9801 96.5319 85.8914 96.5319 84.5478C96.5319 83.2043 95.4428 82.1155 94.0996 82.1155H73.9306C72.5873 82.1155 71.4983 83.2043 71.4983 84.5478C71.4983 85.8914 72.5873 86.9801 73.9306 86.9801Z" fill="black"/>
<path d="M88.9607 97.1418C90.304 97.1418 91.393 96.0531 91.393 94.7095C91.393 93.3659 90.304 92.2772 88.9607 92.2772H73.9306C72.5873 92.2772 71.4983 93.3659 71.4983 94.7095C71.4983 96.0531 72.5873 97.1418 73.9306 97.1418H88.9607Z" fill="black"/>
<path d="M58.0632 35.0309H39.3253C35.9116 35.0309 33.134 37.8085 33.134 41.2222V59.9601C33.134 63.3738 35.9116 66.1513 39.3253 66.1513H58.0632C61.4769 66.1513 64.2545 63.3738 64.2545 59.9601V41.2222C64.2545 37.8085 61.4772 35.0309 58.0632 35.0309ZM59.3902 59.9601C59.3902 60.6915 58.795 61.2868 58.0635 61.2868H39.3256C38.5942 61.2868 37.9989 60.6918 37.9989 59.9601V41.2222C37.9989 40.4907 38.5942 39.8955 39.3256 39.8955H58.0635C58.795 39.8955 59.3902 40.4904 59.3902 41.2222V59.9601Z" fill="black"/>
<path d="M58.0632 74.0687H39.3253C35.9116 74.0687 33.134 76.8463 33.134 80.26V98.9979C33.134 102.412 35.9116 105.189 39.3253 105.189H58.0632C61.4769 105.189 64.2545 102.412 64.2545 98.9979V80.26C64.2545 76.846 61.4772 74.0687 58.0632 74.0687ZM59.3902 98.9979C59.3902 99.7293 58.795 100.325 58.0635 100.325H39.3256C38.5942 100.325 37.9989 99.7297 37.9989 98.9979V80.26C37.9989 79.5286 38.5942 78.9333 39.3256 78.9333H58.0635C58.795 78.9333 59.3902 79.5282 59.3902 80.26V98.9979Z" fill="black"/>
<path d="M58.0632 113.106H39.3253C35.9116 113.106 33.134 115.884 33.134 119.297V138.035C33.134 141.449 35.9116 144.226 39.3253 144.226H58.0632C61.4769 144.226 64.2545 141.449 64.2545 138.035V119.297C64.2545 115.884 61.4772 113.106 58.0632 113.106ZM59.3902 138.035C59.3902 138.767 58.795 139.362 58.0635 139.362H39.3256C38.5942 139.362 37.9989 138.767 37.9989 138.035V119.297C37.9989 118.566 38.5942 117.971 39.3256 117.971H58.0635C58.795 117.971 59.3902 118.565 59.3902 119.297V138.035Z" fill="black"/>
<path d="M150.844 41.6031L146.983 39.1585C144.979 37.8889 142.6 37.4768 140.286 37.9965C137.971 38.5169 135.998 39.9074 134.729 41.9121L131.189 47.5055L126.274 55.2722L120.716 64.0556V27.5459C120.716 25.0316 118.67 22.9861 116.156 22.9861H98.7271V18.1219H122.06C124.001 18.1219 125.58 19.7008 125.58 21.6419V42.7058C125.58 44.0493 126.669 45.1381 128.012 45.1381C129.356 45.1381 130.445 44.0493 130.445 42.7058V21.6419C130.445 17.0189 126.683 13.2573 122.06 13.2573H98.2242C97.2282 10.8526 94.8585 9.15561 92.0981 9.15561H85.8147V6.70614C85.8147 3.00875 82.8063 0 79.1083 0H62.3663C58.6682 0 55.6598 3.00875 55.6598 6.70646V9.15594H49.3764C46.616 9.15594 44.2463 10.8529 43.2506 13.2576H19.4144C14.791 13.2576 11.0298 17.0189 11.0298 21.6423V157.616C11.0298 162.239 14.791 166 19.4144 166H122.06C126.684 166 130.445 162.239 130.445 157.616V103.08C130.445 101.736 129.356 100.647 128.013 100.647C126.67 100.647 125.58 101.736 125.58 103.08V157.615C125.58 159.556 124.001 161.135 122.06 161.135H19.4144C17.4733 161.135 15.894 159.556 15.894 157.615V21.6419C15.894 19.7008 17.4733 18.1219 19.4144 18.1219H42.7471V22.9865H25.3184C22.8041 22.9865 20.7586 25.032 20.7586 27.5463V151.711C20.7586 154.226 22.8041 156.271 25.3184 156.271H116.156C118.67 156.271 120.716 154.226 120.716 151.711V105.811L145.14 67.217C145.14 67.2164 145.141 67.2154 145.141 67.2148L150.054 59.4507L153.597 53.8537C156.214 49.717 154.979 44.2215 150.844 41.6031ZM141.352 42.7427C142.399 42.5067 143.475 42.6938 144.381 43.268L148.241 45.7129C150.111 46.8969 150.67 49.3818 149.486 51.2522L147.245 54.7933L136.6 48.0525L138.84 44.5136C139.413 43.6068 140.306 42.9778 141.352 42.7427ZM95.2868 136.898C94.8264 137.625 94.3109 138.31 93.7464 138.952C92.9829 137.928 92.1153 137.001 91.1611 136.184L136.483 64.6145L139.729 66.6704L95.2868 136.898ZM78.678 151.404C78.6612 151.398 78.6401 151.386 78.632 151.386C78.6304 151.386 78.6294 151.387 78.6287 151.388C83.8973 129.507 81.3324 140.159 82.0648 137.118C85.2246 137.646 88.1624 139.422 90.0954 142.203C77.2168 152.581 78.8609 151.237 78.678 151.404ZM133.999 52.1629L144.644 58.9037L142.33 62.5596L131.685 55.8188L133.999 52.1629ZM47.6114 15.8394C47.613 15.8096 47.615 15.7797 47.6156 15.7496C47.6159 15.7392 47.6146 15.7291 47.6149 15.7188C47.65 14.7766 48.4255 14.0199 49.3764 14.0199H56.3442C58.6491 14.0199 60.5244 12.1446 60.5244 9.83972V6.70614C60.5244 5.69036 61.3508 4.86425 62.3666 4.86425H79.1086C80.1244 4.86425 80.9508 5.69036 80.9508 6.70614V9.83972C80.9508 12.1446 82.8261 14.0199 85.131 14.0199H92.0987C93.0497 14.0199 93.8252 14.7763 93.8602 15.7188C93.8602 15.7291 93.8592 15.7392 93.8596 15.7496C93.8602 15.7791 93.8622 15.8089 93.8638 15.8387V22.9861H47.6114V15.8394ZM25.6229 27.8507H115.851V71.7425L90.395 111.969C89.6765 113.104 90.0143 114.607 91.1494 115.325C92.2796 116.04 93.784 115.71 94.5054 114.57L129.084 59.9292L132.373 62.0117L87.051 133.581C85.9045 133.068 84.6958 132.68 83.4437 132.428C83.7828 131.643 84.1816 130.884 84.642 130.156L88.4231 124.182C89.1415 123.047 88.8037 121.544 87.6686 120.826C86.5332 120.108 85.0308 120.446 84.3126 121.581L80.5319 127.555C79.2827 129.528 78.3723 131.678 77.8253 133.947C77.8253 133.948 77.825 133.948 77.825 133.949L73.9059 150.209C73.8089 150.61 73.7638 151.012 73.7648 151.407H25.6229V27.8507ZM115.851 151.407H86.4275L94.7752 144.68C96.5921 143.216 98.147 141.473 99.3966 139.5L115.851 113.498V151.407Z" fill="black"/>
</g>
<defs>
<clipPath id="clip0">
<rect width="166" height="166" fill="white"/>
</clipPath>
</defs>
</svg>
