<svg width="278" height="30" viewBox="0 0 278 30" fill="none" xmlns="http://www.w3.org/2000/svg">
<path d="M7.95828 23.9916L0 14.4538L11.3091 4.91597H17.3407L5.98966 14.4538L13.9898 23.9916H7.95828Z" fill="#212737"/>
<path d="M35.0711 0C37.5563 0 39.511 0.616247 40.9351 1.84874C42.3871 3.05322 43.1132 4.7479 43.1132 6.93277C43.1132 7.60504 43.0573 8.22129 42.9456 8.78151C42.443 11.6106 41.1724 13.7395 39.134 15.1681C37.0956 16.5966 34.5964 17.3109 31.6365 17.3109L30.8825 20.6303H26.7358L27.6992 14.0336H29.0814C31.7621 14.0336 33.8843 13.6695 35.4481 12.9412C37.0397 12.2129 38.0171 10.8263 38.3801 8.78151C38.4359 8.52941 38.4638 8.16527 38.4638 7.68908C38.4638 6.54062 38.1148 5.64426 37.4167 5C36.7186 4.35574 35.7133 4.03361 34.4009 4.03361C32.893 4.03361 31.6365 4.43978 30.6312 5.2521C29.626 6.06443 28.9837 7.19888 28.7045 8.65546H24.2227C24.5019 6.97479 25.1442 5.47619 26.1494 4.15967C27.1547 2.84314 28.4252 1.82073 29.961 1.09244C31.4969 0.364146 33.2002 0 35.0711 0ZM27.1128 29.916C26.3589 29.916 25.7445 29.6779 25.2698 29.2017C24.7951 28.7255 24.5578 28.1232 24.5578 27.395C24.5578 26.4146 24.9208 25.5742 25.6468 24.8739C26.4008 24.1457 27.2524 23.7815 28.2018 23.7815C28.9558 23.7815 29.5561 24.0196 30.0029 24.4958C30.4776 24.972 30.715 25.5742 30.715 26.3025C30.715 27.2829 30.352 28.1373 29.626 28.8655C28.8999 29.5658 28.0622 29.916 27.1128 29.916Z" fill="#212737"/>
<path d="M50.4467 4.91597H56.4783L64.4366 14.4538L53.1274 23.9916H47.0959L58.4469 14.4538L50.4467 4.91597Z" fill="#212737"/>
<path d="M96.4644 0.420168C99.173 0.420168 101.519 0.882352 103.501 1.80672C105.484 2.73109 106.992 4.06163 108.025 5.79832C109.086 7.53502 109.617 9.59384 109.617 11.9748C109.617 13.0672 109.519 14.1176 109.323 15.126C108.793 18.0952 107.704 20.6723 106.056 22.8571C104.409 25.042 102.314 26.7227 99.7734 27.8992C97.2323 29.0476 94.412 29.6218 91.3125 29.6218H81.8044L86.9564 0.420168H96.4644ZM91.9826 25.9664C95.3614 25.9664 98.1259 25 100.276 23.0672C102.454 21.1345 103.836 18.4874 104.423 15.126C104.59 14.1457 104.674 13.2353 104.674 12.395C104.674 9.81793 103.92 7.82913 102.412 6.42857C100.904 5 98.6983 4.28571 95.7942 4.28571H91.0612L87.2495 25.9664H91.9826Z" fill="#212737"/>
<path d="M125.574 6.09244C128.45 6.09244 130.74 6.90476 132.444 8.52941C134.175 10.1541 135.04 12.3389 135.04 15.084C135.04 15.7283 134.971 16.4986 134.831 17.395C134.719 18.0112 134.524 18.7675 134.245 19.6639H116.611C116.583 19.8599 116.569 20.1541 116.569 20.5462C116.569 22.1989 117.072 23.5154 118.077 24.4958C119.11 25.4762 120.45 25.9664 122.098 25.9664C124.695 25.9664 126.691 24.888 128.087 22.7311H133.239C132.178 24.8599 130.615 26.6106 128.548 27.9832C126.482 29.3277 124.094 30 121.386 30C119.459 30 117.77 29.6218 116.318 28.8655C114.866 28.1092 113.735 27.0308 112.925 25.6303C112.115 24.2017 111.71 22.535 111.71 20.6303C111.71 19.8179 111.794 18.9496 111.961 18.0252C112.38 15.6443 113.232 13.5574 114.516 11.7647C115.801 9.94398 117.393 8.54342 119.291 7.56302C121.218 6.58263 123.312 6.09244 125.574 6.09244ZM130.056 16.2185C130.112 15.7143 130.14 15.3501 130.14 15.126C130.14 13.5854 129.623 12.3669 128.59 11.4706C127.585 10.5742 126.272 10.1261 124.653 10.1261C122.949 10.1261 121.414 10.6723 120.045 11.7647C118.677 12.8571 117.742 14.3417 117.239 16.2185H130.056Z" fill="#212737"/>
<path d="M147.028 25.3361L156.871 6.47059H162.023L149.164 29.6218H143.384L138.692 6.47059H143.802L147.028 25.3361Z" fill="#212737"/>
<path d="M172.041 29.916C170.253 29.916 168.648 29.6359 167.224 29.0756C165.8 28.4874 164.669 27.6471 163.831 26.5546C162.993 25.4342 162.574 24.1176 162.574 22.605C162.574 22.409 162.602 22.0588 162.658 21.5546H167.391C167.28 22.8431 167.657 23.9216 168.522 24.7899C169.388 25.6303 170.63 26.0504 172.25 26.0504C173.981 26.0504 175.336 25.7003 176.313 25C177.29 24.2717 177.779 23.2353 177.779 21.8908C177.779 21.0784 177.528 20.3922 177.025 19.8319C176.55 19.2437 175.936 18.7535 175.182 18.3613C174.456 17.9692 173.437 17.507 172.124 16.9748C170.393 16.2465 169.011 15.5882 167.978 15C166.945 14.4118 166.051 13.5994 165.297 12.563C164.571 11.5266 164.208 10.2241 164.208 8.65546C164.208 6.91877 164.655 5.40616 165.548 4.11765C166.442 2.80112 167.671 1.79272 169.234 1.09244C170.826 0.392157 172.613 0.0420163 174.596 0.0420163C176.578 0.0420163 178.282 0.378151 179.706 1.05042C181.158 1.69468 182.247 2.61905 182.973 3.82353C183.727 5 184.062 6.38655 183.978 7.98319H178.952C179.063 6.83473 178.714 5.88235 177.905 5.12605C177.095 4.34174 175.922 3.94958 174.386 3.94958C172.767 3.94958 171.468 4.32773 170.491 5.08403C169.541 5.81233 169.067 6.80672 169.067 8.06723C169.067 8.85154 169.304 9.53782 169.779 10.1261C170.281 10.6863 170.91 11.1765 171.664 11.5966C172.418 11.9888 173.437 12.465 174.721 13.0252C176.453 13.8095 177.835 14.5098 178.868 15.126C179.929 15.7423 180.837 16.5826 181.591 17.6471C182.344 18.6835 182.721 19.972 182.721 21.5126C182.721 23.1373 182.275 24.5938 181.381 25.8824C180.488 27.1429 179.231 28.1373 177.611 28.8655C175.992 29.5658 174.135 29.916 172.041 29.916Z" fill="#212737"/>
<path d="M187.02 18.0252C187.439 15.6443 188.277 13.5574 189.533 11.7647C190.818 9.94398 192.396 8.54342 194.267 7.56302C196.165 6.58263 198.218 6.09244 200.424 6.09244C203.216 6.09244 205.408 6.76471 207 8.10924C208.591 9.42577 209.499 11.3165 209.722 13.7815H204.57C204.347 12.6331 203.83 11.7367 203.021 11.0924C202.211 10.4482 201.108 10.1261 199.712 10.1261C197.757 10.1261 196.082 10.8263 194.685 12.2269C193.289 13.5994 192.368 15.5322 191.921 18.0252C191.781 18.9216 191.712 19.6499 191.712 20.2101C191.712 22.0588 192.172 23.4874 193.094 24.4958C194.015 25.4762 195.3 25.9664 196.947 25.9664C199.712 25.9664 201.75 24.7479 203.063 22.3109H208.214C207.125 24.6639 205.534 26.5406 203.44 27.9412C201.373 29.3137 198.972 30 196.235 30C193.331 30 191.027 29.1737 189.324 27.521C187.621 25.8403 186.769 23.5714 186.769 20.7143C186.769 19.8459 186.853 18.9496 187.02 18.0252Z" fill="#212737"/>
<path d="M221.769 30C219.814 30 218.097 29.5938 216.617 28.7815C215.137 27.9692 213.978 26.8207 213.141 25.3361C212.331 23.8515 211.926 22.1569 211.926 20.2521C211.926 17.6471 212.526 15.2661 213.727 13.1092C214.956 10.9524 216.631 9.2437 218.753 7.98319C220.903 6.72269 223.291 6.09244 225.916 6.09244C227.87 6.09244 229.602 6.51261 231.11 7.35294C232.617 8.16527 233.79 9.31373 234.628 10.7983C235.494 12.2549 235.926 13.9496 235.926 15.8824C235.926 18.4874 235.298 20.8683 234.042 23.0252C232.785 25.1821 231.082 26.8908 228.932 28.1513C226.781 29.3838 224.394 30 221.769 30ZM222.355 25.9664C223.947 25.9664 225.399 25.5182 226.712 24.6218C228.052 23.6975 229.099 22.493 229.853 21.0084C230.607 19.4958 230.984 17.8852 230.984 16.1765C230.984 14.2437 230.439 12.7591 229.35 11.7227C228.261 10.6583 226.893 10.1261 225.246 10.1261C223.626 10.1261 222.174 10.5882 220.889 11.5126C219.633 12.409 218.642 13.6275 217.916 15.1681C217.217 16.6807 216.868 18.3053 216.868 20.042C216.868 21.9188 217.371 23.3754 218.376 24.4118C219.41 25.4482 220.736 25.9664 222.355 25.9664Z" fill="#212737"/>
<path d="M246.511 10.5462C247.46 9.14566 248.577 8.05322 249.862 7.26891C251.174 6.4846 252.626 6.09244 254.218 6.09244L253.338 11.0504H252.123C250.281 11.0504 248.801 11.5126 247.684 12.437C246.567 13.3613 245.785 14.958 245.338 17.2269L243.16 29.6218H238.385L242.448 6.47059H247.223L246.511 10.5462Z" fill="#212737"/>
<path d="M268.534 6.09244C271.41 6.09244 273.7 6.90476 275.403 8.52941C277.134 10.1541 278 12.3389 278 15.084C278 15.7283 277.93 16.4986 277.791 17.395C277.679 18.0112 277.483 18.7675 277.204 19.6639H259.57C259.542 19.8599 259.528 20.1541 259.528 20.5462C259.528 22.1989 260.031 23.5154 261.036 24.4958C262.069 25.4762 263.41 25.9664 265.057 25.9664C267.654 25.9664 269.651 24.888 271.047 22.7311H276.199C275.138 24.8599 273.574 26.6106 271.508 27.9832C269.441 29.3277 267.054 30 264.345 30C262.418 30 260.729 29.6218 259.277 28.8655C257.825 28.1092 256.694 27.0308 255.884 25.6303C255.075 24.2017 254.67 22.535 254.67 20.6303C254.67 19.8179 254.753 18.9496 254.921 18.0252C255.34 15.6443 256.192 13.5574 257.476 11.7647C258.76 9.94398 260.352 8.54342 262.251 7.56302C264.178 6.58263 266.272 6.09244 268.534 6.09244ZM273.016 16.2185C273.071 15.7143 273.099 15.3501 273.099 15.126C273.099 13.5854 272.583 12.3669 271.55 11.4706C270.544 10.5742 269.232 10.1261 267.612 10.1261C265.909 10.1261 264.373 10.6723 263.005 11.7647C261.637 12.8571 260.701 14.3417 260.199 16.2185H273.016Z" fill="#212737"/>
</svg>
