<svg width="166" height="166" viewBox="0 0 166 166" fill="none" xmlns="http://www.w3.org/2000/svg">
<g clip-path="url(#clip0)">
<path d="M11.9966 35.0156L34.8932 45.3514L61.602 18.1562L87.5395 23.9922L113.477 8.75391L139.415 18.6426V84.7021L112.18 113.274L11.9966 154.002V35.0156Z" fill="#FF7B79"/>
<path d="M11.9966 100.589L33.5166 81.5815L61.602 85.6641L87.5395 48.6328L113.477 54.4688L139.415 49.0381V84.7021L112.18 113.274L11.9966 154.004V100.589Z" fill="#FFDA8F"/>
<path d="M11.9966 136.253L35.6645 113.477L61.602 118.086L87.5395 94.9961L112.531 108.345L139.415 84.7021V153.923L11.9966 154.004V136.253Z" fill="#B8ECBC"/>
<path d="M165.503 152.276L159.991 143.522C159.037 142.007 157.035 141.551 155.52 142.506C154.005 143.46 153.55 145.462 154.504 146.977L156.887 150.761H142.658V137.394C142.658 135.604 141.202 134.151 139.415 134.151C137.629 134.151 136.177 135.601 136.173 137.387V137.394V150.683L15.24 150.758V137.633L36.7227 116.958L61.0358 121.277C62.0084 121.449 63.02 121.163 63.7592 120.508L88.0075 98.9218L111.005 111.203C111.471 111.456 112 111.586 112.532 111.586C113.32 111.586 114.081 111.3 114.674 110.779L136.174 91.8701V108.211C136.174 110 137.626 111.453 139.416 111.453C141.202 111.453 142.658 110 142.658 108.211V18.6422C142.658 17.2974 141.827 16.0919 140.571 15.6127L114.633 5.72407C113.713 5.37294 112.684 5.45918 111.836 5.95815L87.0027 20.5476L62.3151 14.9931C61.2203 14.7467 60.0764 15.0836 59.2902 15.8844L34.1665 41.4652L15.2403 32.9218V9.11442L19.0246 11.4971C19.5611 11.8349 20.1587 11.9961 20.7491 11.9961C21.8258 11.9961 22.8795 11.4595 23.4959 10.481C24.4497 8.9656 23.9952 6.96388 22.4798 6.0097L13.7259 0.497997C12.6702 -0.16665 11.3267 -0.16665 10.271 0.497997L1.51712 6.0097C0.00172138 6.96388 -0.453157 8.9656 0.501017 10.481C1.45519 11.9964 3.45724 12.4513 4.97231 11.4971L8.75658 9.11442V23.3434H4.94702C3.15636 23.3434 1.70484 24.7949 1.70484 26.5856C1.70484 28.3762 3.15636 29.8277 4.94702 29.8277H8.75658V49.2808H4.94702C3.15636 49.2808 1.70484 50.7323 1.70484 52.523C1.70484 54.3137 3.15636 55.7652 4.94702 55.7652H8.75658V75.2183H4.94702C3.15636 75.2183 1.70484 76.6698 1.70484 78.4605C1.70484 80.2511 3.15636 81.7026 4.94702 81.7026H8.75658V101.156H4.94702C3.15636 101.156 1.70484 102.607 1.70484 104.398C1.70484 106.189 3.15636 107.64 4.94702 107.64H8.75658V127.093H4.94702C3.15636 127.093 1.70484 128.545 1.70484 130.335C1.70484 132.126 3.15636 133.578 4.94702 133.578H8.75658V136.252V150.761H3.24487C1.45422 150.761 0.00269397 152.213 0.00269397 154.003C0.00269397 155.794 1.45422 157.245 3.24487 157.245H8.75658V162.757C8.75658 164.548 10.2081 165.999 11.9988 165.999C13.7894 165.999 15.2409 164.548 15.2409 162.757V157.245H32.4245V160.407C32.4245 162.197 33.876 163.649 35.6667 163.649C37.4573 163.649 38.9089 162.197 38.9089 160.407V157.245H58.3619V160.407C58.3619 162.197 59.8135 163.649 61.6041 163.649C63.3948 163.649 64.8463 162.197 64.8463 160.407V157.245H84.2994V160.407C84.2994 162.197 85.7512 163.649 87.5416 163.649C89.3319 163.649 90.7838 162.197 90.7838 160.407V157.245H110.237V160.407C110.237 162.197 111.689 163.649 113.479 163.649C115.269 163.649 116.721 162.197 116.721 160.407V157.245H136.174V160.407C136.174 162.197 137.626 163.649 139.416 163.649C141.207 163.649 142.659 162.197 142.659 160.407V157.245H156.888L154.505 161.03C153.551 162.545 154.006 164.547 155.521 165.501C156.058 165.839 156.655 166 157.245 166C158.322 166 159.376 165.463 159.992 164.485L165.504 155.731C166.168 154.675 166.168 153.331 165.503 152.276ZM15.24 40.0361L33.5606 48.3059C34.7994 48.8655 36.2551 48.5925 37.2077 47.6228L62.652 21.7152L86.8289 27.1549C87.6324 27.3358 88.473 27.2042 89.1831 26.7872L113.778 12.3378L136.173 20.8761V46.404L113.503 51.1506L88.2523 45.4693C86.9697 45.1808 85.6394 45.6953 84.8849 46.7724L60.0933 82.1679L33.984 78.3723C33.0405 78.2345 32.0854 78.5201 31.3711 79.1507L15.2396 93.3985V40.0361H15.24ZM15.24 102.051L34.5381 85.0058L61.1369 88.8724C62.3482 89.0481 63.5566 88.5268 64.2588 87.524L88.9493 52.2727L112.766 57.6314C113.219 57.7332 113.688 57.7368 114.142 57.6418L136.173 53.0291V83.2362L112.077 104.427L89.0677 92.1363C88.5975 91.8866 88.0691 91.7537 87.5406 91.7537C86.7463 91.7537 85.9808 92.0455 85.3846 92.574L60.6208 114.618L36.2331 110.283C35.215 110.104 34.1646 110.422 33.4189 111.139L15.24 128.633V102.051Z" fill="black"/>
<path d="M139.415 126.043C141.205 126.043 142.657 124.592 142.657 122.801C142.657 121.01 141.205 119.559 139.415 119.559C137.624 119.559 136.172 121.01 136.172 122.801C136.172 124.592 137.624 126.043 139.415 126.043Z" fill="black"/>
</g>
<defs>
<clipPath id="clip0">
<rect width="166" height="166" fill="white"/>
</clipPath>
</defs>
</svg>
