<svg width="166" height="166" viewBox="0 0 166 166" fill="none" xmlns="http://www.w3.org/2000/svg">
<g clip-path="url(#clip0)">
<path d="M163.517 60.7479V148.074C163.517 152.553 161.61 156.586 158.566 159.41C155.806 161.97 152.111 163.535 148.052 163.535H17.9269C13.8679 163.535 10.1736 161.97 7.41647 159.413C4.37313 156.586 2.46582 152.553 2.46582 148.074V60.7479H163.517Z" fill="#FEC970"/>
<path d="M83.6494 163.535H17.9269C9.38837 163.535 2.46582 156.613 2.46582 148.074V60.2287L19.6392 75.049L20.7107 75.9393V120.011C20.7107 135.005 26.7606 149.216 40.555 155.099C53.2831 160.527 75.9252 163.535 83.6494 163.535Z" fill="#FBA028"/>
<path d="M163.516 60.7478L101.612 9.20477C90.8227 0.220399 75.1577 0.220399 64.3686 9.20477L2.46582 60.7478L20.7107 75.9391L64.3686 112.291C75.1589 121.276 90.824 121.276 101.611 112.291L145.272 75.9391L163.517 60.7478" fill="#FBA028"/>
<path d="M145.272 28.5806V75.9392L101.611 112.291C90.824 121.276 75.159 121.276 64.3686 112.291L20.7107 75.9392V28.5806C20.7107 18.7072 28.7173 10.7005 38.5946 10.7005H127.392C137.268 10.7005 145.272 18.7072 145.272 28.5806Z" fill="#BFDADD"/>
<path d="M145.272 28.5806V65.0931L101.611 101.445C90.824 110.43 75.159 110.43 64.3686 101.445L20.7107 65.0931V28.5806C20.7107 18.7072 28.7173 10.7005 38.5946 10.7005H127.392C137.268 10.7005 145.272 18.7072 145.272 28.5806Z" fill="#E4F5F7"/>
<path d="M148.505 153.499C149.212 153.499 149.913 153.198 150.401 152.612C151.272 151.566 151.13 150.012 150.084 149.14L110.778 116.414C109.732 115.543 108.178 115.685 107.306 116.731C106.435 117.777 106.577 119.332 107.623 120.204L146.929 152.93C147.39 153.313 147.949 153.499 148.505 153.499Z" fill="black"/>
<path d="M55.206 116.414L15.8996 149.14C14.8535 150.012 14.7116 151.566 15.583 152.612C16.0693 153.198 16.7709 153.499 17.4789 153.499C18.0349 153.499 18.5934 153.313 19.0544 152.93L58.3608 120.202C59.4069 119.332 59.5488 117.777 58.6774 116.731C57.8074 115.685 56.2521 115.543 55.206 116.414Z" fill="black"/>
<path d="M165.982 60.7484C165.982 60.0164 165.656 59.3223 165.094 58.8537L147.737 44.402V28.5812C147.737 17.3628 138.611 8.23654 127.392 8.23654H104.298L103.189 7.31202C91.4863 -2.43604 74.4966 -2.43604 62.7906 7.31202L61.6811 8.23654H56.6975C55.3361 8.23654 54.233 9.33964 54.233 10.7011C54.233 12.0626 55.3361 13.1669 56.6975 13.1669H127.392C135.891 13.1669 142.806 20.0819 142.806 28.5812V45.5444V45.5456V74.7847L100.033 110.398C90.1591 118.624 75.8238 118.622 65.9453 110.397L23.1765 74.7847V45.5469C23.1765 45.5456 23.1765 45.5444 23.1765 45.5444V28.5812C23.1765 20.0819 30.0927 13.1669 38.5946 13.1669H46.8368C48.1982 13.1669 49.3026 12.0626 49.3026 10.7011C49.3026 9.33964 48.1982 8.23654 46.8368 8.23654H38.5946C27.3749 8.23654 18.2461 17.3628 18.2461 28.5812V44.402L0.889066 58.855C0.331817 59.3185 0.00759885 60.005 0.00253295 60.7294C0.00253295 60.737 0 60.7421 0 60.7497V148.074C0 157.959 8.04212 166 17.927 166H128.348C129.71 166 130.813 164.897 130.813 163.535C130.813 162.174 129.71 161.071 128.348 161.071H17.927C10.76 161.071 4.93039 155.24 4.93039 148.074V66.0081L19.1415 77.842C19.1428 77.842 19.1428 77.842 19.1428 77.8433L62.7906 114.186C68.6455 119.061 75.8162 121.497 82.9908 121.496C90.1629 121.496 97.3375 119.059 103.187 114.186L146.83 77.8496C146.838 77.8433 146.844 77.8382 146.85 77.8319L161.05 66.0093V148.073C161.05 155.239 155.22 161.07 148.053 161.07H138.209C136.848 161.07 135.745 162.173 135.745 163.534C135.745 164.896 136.848 166 138.209 166H148.053C157.938 166 165.98 157.958 165.98 148.073V60.7687C165.98 60.7623 165.982 60.756 165.982 60.7484ZM95.8342 8.23654H70.1475C78.1301 3.83555 87.8528 3.83555 95.8342 8.23654ZM18.2461 50.818V70.6801L6.31844 60.7497L18.2461 50.818ZM147.737 70.6788V50.818L159.664 60.7484L147.737 70.6788Z" fill="black"/>
<path d="M119.145 68.2886H46.8382C45.4767 68.2886 44.3723 69.3917 44.3723 70.7531C44.3723 72.1146 45.4767 73.219 46.8382 73.219H119.145C120.507 73.219 121.611 72.1146 121.611 70.7531C121.611 69.3917 120.507 68.2886 119.145 68.2886Z" fill="black"/>
<path d="M119.145 82.6049H46.8382C45.4767 82.6049 44.3723 83.7092 44.3723 85.0707C44.3723 86.4322 45.4767 87.5353 46.8382 87.5353H119.145C120.507 87.5353 121.611 86.4322 121.611 85.0707C121.611 83.7092 120.507 82.6049 119.145 82.6049Z" fill="black"/>
<path d="M119.145 39.6547H46.8382C45.4767 39.6547 44.3723 40.7591 44.3723 42.1206C44.3723 43.4808 45.4767 44.5851 46.8382 44.5851H119.145C120.507 44.5851 121.611 43.4808 121.611 42.1206C121.611 40.7591 120.507 39.6547 119.145 39.6547Z" fill="black"/>
<path d="M119.145 53.9723H101.069C99.7074 53.9723 98.6042 55.0754 98.6042 56.4369C98.6042 57.7983 99.7074 58.9014 101.069 58.9014H119.145C120.507 58.9014 121.61 57.7983 121.61 56.4369C121.61 55.0754 120.507 53.9723 119.145 53.9723Z" fill="black"/>
<path d="M46.8382 58.9014H92.8519C94.2134 58.9014 95.3165 57.7983 95.3165 56.4369C95.3165 55.0754 94.2134 53.9723 92.8519 53.9723H46.8382C45.4767 53.9723 44.3723 55.0754 44.3723 56.4369C44.3723 57.7983 45.4767 58.9014 46.8382 58.9014Z" fill="black"/>
</g>
<defs>
<clipPath id="clip0">
<rect width="166" height="166" fill="white"/>
</clipPath>
</defs>
</svg>
