<svg width="688" height="366" viewBox="0 0 688 366" fill="none" xmlns="http://www.w3.org/2000/svg">
<g clip-path="url(#clip0)">
<path opacity="0.1" d="M635.251 289.418C634.484 291.069 633.72 292.698 632.958 294.305C631.769 296.802 630.595 299.25 629.437 301.649C628.921 302.713 628.406 303.756 627.904 304.8C622.222 316.404 616.916 326.667 612.41 335.108C608.322 342.755 602.251 349.163 594.833 353.66C587.416 358.157 578.925 360.577 570.251 360.667L470.056 361.757H468.999L460.41 361.849L453.063 361.928L430.533 362.173H429.621L418.151 362.298H417.801L347.106 363.064L284.003 363.725L276.662 363.804L231.074 364.299H231.021L201.455 364.616H201.138L107.649 365.627L79.6814 365.931C73.7131 365.998 67.7699 365.147 62.0605 363.408C52.125 360.408 43.1958 354.756 36.2337 347.062C24.2222 333.833 15.4679 318.398 9.58771 301.649C8.73761 299.232 7.94477 296.784 7.20919 294.305C-13.147 225.52 11.6689 136.775 56.3322 77.3878C58.2042 74.9046 60.107 72.4829 62.0407 70.1229L62.0869 70.0701C75.8229 53.2155 91.2238 39.1348 107.629 29.1224C136.7 11.3498 168.909 6.34358 200.589 21.2631C227.394 33.8908 252.421 39.8282 276.682 41.4397C279.133 41.5982 281.585 41.7171 284.023 41.7898C339.673 43.5399 391.829 23.4954 453.076 10.5572C455.514 10.0421 457.959 9.53353 460.423 9.0514C504.115 0.359921 552.584 -4.22358 610.223 5.41234C616.212 6.39024 622.121 7.80293 627.904 9.6392C630.445 10.4582 632.894 11.3388 635.251 12.281C662.762 23.469 677.767 44.1409 684.143 70.0437C684.746 72.4477 685.268 74.8936 685.708 77.3813C697.013 139.688 663.905 228.069 635.251 289.418Z" fill="#212737"/>
<g opacity="0.1">
<path opacity="0.1" d="M107.628 29.1191V365.696L79.6607 366C73.6924 366.067 67.7492 365.217 62.0398 363.477V70.0668H62.086C75.822 53.1924 91.2229 39.1117 107.628 29.1191Z" fill="#212737"/>
<path opacity="0.1" d="M685.741 77.3846H56.3313C58.2033 74.9013 60.1061 72.4797 62.0397 70.1197V70.0668H684.175C684.778 72.4577 685.3 74.8969 685.741 77.3846Z" fill="#212737"/>
<path opacity="0.1" d="M635.25 12.2843V294.295H632.957C631.768 296.792 630.594 299.24 629.436 301.639C628.92 302.703 628.405 303.746 627.903 304.79V9.61612C630.444 10.4351 632.893 11.3245 635.25 12.2843Z" fill="#212737"/>
<path opacity="0.1" d="M460.422 9.02832V361.872L453.075 361.951V10.5341C455.513 10.019 457.958 9.51045 460.422 9.02832Z" fill="#212737"/>
<path opacity="0.1" d="M284.022 41.7667V363.788L276.681 363.867V41.4167C279.133 41.5752 281.584 41.6676 284.022 41.7667Z" fill="#212737"/>
<path opacity="0.1" d="M632.957 294.302C631.768 296.798 630.594 299.246 629.436 301.646H9.58677C8.73667 299.229 7.94383 296.781 7.20825 294.302H632.957Z" fill="#212737"/>
</g>
<path d="M152.357 175.567H139.804V213.648H152.357V175.567Z" fill="#3F3D56"/>
<path d="M490.193 173.585H477.64V213.873H490.193V173.585Z" fill="#3F3D56"/>
<path d="M570.25 352.448V361.033L469.877 361.958L468.806 361.978L430.658 362.328L429.746 362.341L418.15 362.44H417.807L347.125 363.094L231.1 364.171H231.001L201.5 364.448L201.183 364.455L70.1003 365.657V355.75L100.922 337.257L162.764 336.742L164.085 336.736L164.521 336.729L165.842 336.709L195.534 336.465L196.862 336.458L197.285 336.452L198.606 336.445L208.127 336.366L208.378 336.359L231.866 336.161H232.058L415.336 334.616L419.822 334.583H420.271L423.694 334.55L448.569 334.345L449.89 334.325L451.113 334.312H451.747L459.484 334.252L461.017 334.232L463.071 334.219L469.513 334.16L479.734 334.074L481.056 334.061L483.355 334.048H483.784L533.145 333.625L570.25 352.448Z" fill="#65617D"/>
<path opacity="0.2" d="M570.25 352.448V361.033L469.877 361.958L468.806 361.978L430.658 362.328L429.746 362.341L418.15 362.44H417.807L347.125 363.094L231.1 364.171H231.001L201.5 364.448L201.183 364.455L70.1003 365.657V355.75L100.922 337.257L162.764 336.742L164.085 336.736L164.521 336.729L165.842 336.709L195.534 336.465L196.862 336.458L197.285 336.452L198.606 336.445L208.127 336.366L208.378 336.359L231.866 336.161H232.058L415.336 334.616L419.822 334.583H420.271L423.694 334.55L448.569 334.345L449.89 334.325L451.113 334.312H451.747L459.484 334.252L461.017 334.232L463.071 334.219L469.513 334.16L479.734 334.074L481.056 334.061L483.355 334.048H483.784L533.145 333.625L570.25 352.448Z" fill="black"/>
<path d="M195.633 319.432V335.606C195.634 336.372 195.416 337.123 195.007 337.77C194.598 338.418 194.013 338.936 193.321 339.265C192.805 339.515 192.242 339.65 191.669 339.661L168.611 340.15C167.995 340.165 167.384 340.036 166.827 339.774C166.122 339.451 165.525 338.933 165.107 338.28C164.689 337.628 164.467 336.87 164.468 336.095V319.432H195.633Z" fill="#3F3D56"/>
<path opacity="0.1" d="M195.633 319.432V335.606C195.634 336.372 195.416 337.123 195.007 337.77C194.598 338.418 194.013 338.936 193.321 339.265C192.805 339.515 192.242 339.65 191.669 339.661L168.611 340.15C167.995 340.165 167.384 340.036 166.827 339.774C166.122 339.451 165.525 338.933 165.107 338.28C164.689 337.628 164.467 336.87 164.468 336.095V319.432H195.633Z" fill="black"/>
<path d="M196.955 319.432V335.606C196.955 336.372 196.738 337.123 196.328 337.77C195.919 338.418 195.334 338.936 194.642 339.265C194.127 339.515 193.563 339.65 192.99 339.661L169.932 340.15C169.316 340.165 168.705 340.036 168.148 339.774C167.444 339.451 166.847 338.933 166.429 338.28C166.01 337.628 165.788 336.87 165.789 336.095V319.432H196.955Z" fill="#3F3D56"/>
<path d="M481.056 319.432H449.89V340.236H481.056V319.432Z" fill="#3F3D56"/>
<path opacity="0.1" d="M481.056 319.432H449.89V340.236H481.056V319.432Z" fill="black"/>
<path d="M479.734 319.432H448.569V340.236H479.734V319.432Z" fill="#3F3D56"/>
<path opacity="0.1" d="M152.357 175.56V179.344L139.804 179.021V175.56H152.357Z" fill="black"/>
<path d="M234.984 68.9507L219.901 177.264C219.805 177.956 219.458 178.588 218.925 179.04C218.392 179.492 217.712 179.732 217.013 179.714L96.2375 176.584L93.9448 176.524C93.5457 176.515 93.153 176.421 92.7924 176.25C92.4317 176.079 92.1113 175.833 91.852 175.53C91.5926 175.226 91.4002 174.872 91.2872 174.489C91.1743 174.106 91.1433 173.704 91.1963 173.308L108.13 59.9224C108.239 59.22 108.608 58.5841 109.163 58.1403C109.719 57.6964 110.42 57.4769 111.13 57.525L232.342 65.7277C232.733 65.7504 233.115 65.8538 233.464 66.0315C233.813 66.2092 234.121 66.4573 234.37 66.7602C234.618 67.063 234.801 67.414 234.907 67.791C235.012 68.1681 235.039 68.5629 234.984 68.9507Z" fill="#65617D"/>
<path d="M116.237 65.4899L103.466 165.435L214.463 168.956L228.113 72.5303L116.237 65.4899Z" fill="#212737"/>
<path d="M385.809 63.9445H257.627C255.682 63.9445 254.105 65.5205 254.105 67.4647V174.9C254.105 176.844 255.682 178.42 257.627 178.42H385.809C387.754 178.42 389.331 176.844 389.331 174.9V67.4647C389.331 65.5205 387.754 63.9445 385.809 63.9445Z" fill="#65617D"/>
<path d="M383.378 71.6519H260.488V166.974H383.378V71.6519Z" fill="#212737"/>
<path opacity="0.1" d="M490.193 173.579V176.082L477.64 176.339V173.579H490.193Z" fill="black"/>
<path d="M546.835 171.465C546.853 171.739 546.815 172.013 546.724 172.272C546.633 172.531 546.491 172.769 546.306 172.971C546.121 173.173 545.897 173.336 545.647 173.45C545.397 173.563 545.127 173.625 544.853 173.632L421.17 176.187C420.656 176.198 420.157 176.014 419.774 175.672C419.39 175.33 419.15 174.856 419.102 174.345L408.471 63.8652C408.445 63.5911 408.475 63.3146 408.558 63.0523C408.642 62.79 408.779 62.5475 408.959 62.3394C409.139 62.1313 409.36 61.9619 409.608 61.8416C409.856 61.7213 410.125 61.6526 410.4 61.6395L533.145 55.537L534.467 55.471C534.992 55.4433 535.507 55.6207 535.904 55.9657C536.301 56.3107 536.549 56.7964 536.594 57.3202L546.835 171.465Z" fill="#65617D"/>
<path d="M415.534 68.1317L527.635 62.6236L537.103 163.012L425.887 165.653L415.534 68.1317Z" fill="#212737"/>
<path opacity="0.1" d="M546.835 171.465C546.853 171.739 546.815 172.013 546.724 172.272C546.633 172.531 546.491 172.768 546.306 172.971C546.121 173.173 545.897 173.336 545.647 173.45C545.397 173.563 545.127 173.625 544.853 173.632L533.145 55.537L534.467 55.471C534.992 55.4433 535.507 55.6207 535.904 55.9657C536.301 56.3107 536.549 56.7964 536.594 57.3202L546.835 171.465Z" fill="black"/>
<path opacity="0.1" d="M111.149 57.5183L96.2375 176.584L93.9448 176.524C93.5457 176.515 93.153 176.421 92.7924 176.25C92.4317 176.079 92.1113 175.833 91.852 175.53C91.5926 175.226 91.4002 174.871 91.2872 174.489C91.1743 174.106 91.1433 173.703 91.1963 173.308L108.13 59.9224C108.238 59.2152 108.609 58.5747 109.169 58.129C109.728 57.6833 110.436 57.4652 111.149 57.5183Z" fill="black"/>
<path opacity="0.1" d="M152.357 202.368H139.804V213.648H152.357V202.368Z" fill="black"/>
<path opacity="0.1" d="M196.955 319.425V322.708L165.789 323.54V319.425H196.955Z" fill="black"/>
<path d="M251.958 206.297V317.384C251.95 318.063 251.681 318.712 251.208 319.197C250.734 319.683 250.092 319.968 249.414 319.993L122.791 323.362H122.758C122.068 323.353 121.41 323.075 120.922 322.588C120.434 322.101 120.157 321.442 120.148 320.753V206.297C120.157 205.608 120.434 204.949 120.922 204.462C121.41 203.975 122.068 203.697 122.758 203.689H249.348C250.038 203.697 250.696 203.975 251.184 204.462C251.672 204.949 251.949 205.608 251.958 206.297Z" fill="#65617D"/>
<path opacity="0.1" d="M122.791 203.689V323.362H122.758C122.068 323.353 121.41 323.075 120.922 322.588C120.434 322.101 120.157 321.442 120.148 320.753V206.297C120.157 205.608 120.434 204.949 120.922 204.462C121.41 203.975 122.068 203.697 122.758 203.689H122.791Z" fill="black"/>
<path d="M128.572 210.782H245.846V308.693L128.572 311.335V210.782Z" fill="#D4DFEC"/>
<path opacity="0.1" d="M490.193 202.368H477.64V213.873H490.193V202.368Z" fill="black"/>
<path opacity="0.1" d="M479.734 319.425V323.659L448.569 322.827V319.425H479.734Z" fill="black"/>
<path d="M520.863 206.297V320.753C520.854 321.448 520.572 322.111 520.077 322.6C519.583 323.088 518.915 323.362 518.22 323.362L391.571 319.993C390.893 319.968 390.25 319.683 389.777 319.197C389.303 318.712 389.035 318.063 389.027 317.384V206.297C389.035 205.608 389.313 204.949 389.801 204.462C390.288 203.975 390.947 203.697 391.637 203.689H518.227C518.921 203.69 519.586 203.965 520.08 204.453C520.573 204.941 520.854 205.604 520.863 206.297Z" fill="#65617D"/>
<path opacity="0.1" d="M520.863 206.297V320.753C520.854 321.448 520.572 322.111 520.077 322.6C519.583 323.088 518.915 323.362 518.22 323.362V203.689C518.915 203.688 519.583 203.962 520.077 204.451C520.572 204.939 520.854 205.602 520.863 206.297Z" fill="black"/>
<path d="M512.439 210.782H395.165V308.693L512.439 311.335V210.782Z" fill="#D4DFEC"/>
<path d="M385.75 206.297V317.384C385.742 318.063 385.473 318.712 384.999 319.197C384.526 319.683 383.884 319.968 383.206 319.993L256.583 323.362C255.888 323.362 255.22 323.088 254.726 322.6C254.231 322.111 253.949 321.448 253.94 320.753V206.297C253.949 205.608 254.226 204.949 254.714 204.462C255.201 203.975 255.86 203.697 256.55 203.689H383.14C383.829 203.697 384.488 203.975 384.976 204.462C385.463 204.949 385.741 205.608 385.75 206.297Z" fill="#65617D"/>
<path d="M262.364 210.782H379.638V308.693L262.364 311.335V210.782Z" fill="#D4DFEC"/>
<path opacity="0.1" d="M570.25 352.448V361.033L469.877 361.958L468.806 361.978L430.658 362.328L429.746 362.341L418.15 362.44H417.807L347.125 363.094L231.1 364.171H231.001L201.5 364.448L201.183 364.455L70.1003 365.657V355.75L203.899 354.871H204.216L231.298 354.687H231.423L418.454 353.451H418.646L418.758 353.445H419.069L422.234 353.425H423.198L472.414 353.095L475.321 353.082L475.968 353.075L570.25 352.448Z" fill="black"/>
<path d="M321.933 213.648C340.663 213.648 355.846 198.47 355.846 179.747C355.846 161.024 340.663 145.847 321.933 145.847C303.203 145.847 288.019 161.024 288.019 179.747C288.019 198.47 303.203 213.648 321.933 213.648Z" fill="#FBBEBE"/>
<path d="M355.853 249.094C355.853 249.094 290.113 257.02 296.39 249.094C298.663 246.228 299.29 237.735 299.165 228.059C299.125 225.12 299.02 222.075 298.868 219.044C298.141 204.514 296.39 190.314 296.39 190.314C296.39 190.314 353.871 163.236 347.264 184.701C344.621 193.372 345.487 205.551 347.495 216.983C348.083 220.319 348.764 223.588 349.477 226.692C351.219 234.263 353.347 241.74 355.853 249.094Z" fill="#FBBEBE"/>
<path opacity="0.1" d="M355.853 249.094C355.853 249.094 290.113 257.02 296.39 249.094C298.663 246.228 299.29 237.735 299.165 228.059C309.188 223.779 321.939 226.969 321.939 226.969C335.365 224.294 343.974 224.816 349.477 226.692C351.219 234.263 353.347 241.74 355.853 249.094Z" fill="black"/>
<path d="M231.073 364.917V364.362L347.105 363.101L417.8 362.44H417.998L417.926 363.418L418.025 362.44H418.15V362.328L419.055 353.445L419.399 350.083L419.505 349.033L419.597 348.155L423.68 334.543L427.764 320.951L431.199 309.505L436.445 292.017C436.445 292.017 433.472 285.082 431.82 283.101C430.168 281.119 428.517 267.58 428.517 267.58C428.517 267.58 414.417 254.153 408.253 252.608C405.67 251.947 400.569 251.069 395.151 249.966C393.123 249.557 391.042 249.121 389.04 248.645C387.91 248.388 386.8 248.117 385.736 247.846C383.666 247.329 381.626 246.699 379.625 245.957C378.576 245.576 377.577 245.068 376.652 244.445C371.796 240.885 359.626 240.482 359.156 240.482C359.155 240.467 359.155 240.451 359.156 240.436V240.376C359.173 240.099 359.173 239.821 359.156 239.544C359.156 239.28 359.156 238.97 359.097 238.62C359.097 238.514 359.097 238.402 359.051 238.289C359.018 238.052 358.978 237.801 358.919 237.536C358.899 237.418 358.872 237.302 358.839 237.186C358.648 236.391 358.371 235.618 358.013 234.881C357.967 234.776 357.908 234.663 357.855 234.558C357.531 233.948 357.155 233.367 356.732 232.821C356.646 232.709 356.553 232.59 356.454 232.477C355.913 231.839 355.311 231.256 354.657 230.734C354.479 230.595 354.294 230.45 354.102 230.318C353.995 230.231 353.883 230.152 353.765 230.08L353.177 229.697L352.629 229.38C352.146 229.116 351.638 228.858 351.083 228.614C350.911 228.535 350.726 228.462 350.541 228.389C350.356 228.317 350.065 228.204 349.821 228.112H349.781L349.286 227.914C348.909 227.788 348.526 227.676 348.123 227.564L347.508 227.405L346.848 227.253L346.187 227.115C345.526 226.982 344.819 226.864 344.079 226.771L343.326 226.679L342.553 226.599L341.754 226.533L340.617 226.467L339.296 226.421C333.468 226.421 327.656 227.038 321.959 228.264C318.001 227.383 313.947 227.01 309.895 227.154H309.32L308.659 227.194H308.236L307.384 227.273C307.1 227.273 306.809 227.333 306.525 227.372C306.241 227.412 305.944 227.445 305.66 227.491L305.223 227.564C304.794 227.636 304.358 227.716 303.902 227.808C303.757 227.834 303.611 227.867 303.466 227.907C302.891 228.033 302.316 228.185 301.748 228.356C301.464 228.435 301.18 228.528 300.896 228.627C300.751 228.667 300.612 228.719 300.473 228.772L300.05 228.924L299.634 229.089L299.138 229.287C298.887 229.393 298.643 229.505 298.398 229.624C298.26 229.684 298.121 229.75 297.989 229.822C297.857 229.895 297.718 229.955 297.592 230.027C296.099 230.799 294.718 231.772 293.489 232.92L293.152 233.244L292.822 233.58C292.71 233.693 292.604 233.812 292.498 233.93C292.068 234.401 291.666 234.897 291.296 235.416C291.19 235.555 291.091 235.694 290.992 235.839C290.573 236.457 290.193 237.101 289.856 237.768C289.77 237.926 289.69 238.091 289.611 238.25C289.072 239.365 288.63 240.526 288.29 241.717C288.166 242.157 288.054 242.598 287.953 243.038C287.953 243.038 273.966 249.207 262.364 253.671C259.278 254.86 256.371 255.936 253.94 256.749C253.233 256.987 252.572 257.205 251.958 257.409C250.625 257.891 249.238 258.21 247.828 258.36C247.164 258.371 246.501 258.433 245.846 258.545C240.515 259.41 231.377 263.168 230.379 266.94C230.298 267.241 230.276 267.555 230.313 267.864C230.313 267.864 230.313 267.91 230.313 267.937C230.974 272.56 226.349 271.899 226.349 271.899C226.349 271.899 224.697 284.118 222.385 287.42C220.713 289.798 219.57 295.101 219.425 299.103C219.342 300.35 219.44 301.603 219.716 302.822C219.716 302.855 219.716 302.888 219.716 302.914C219.98 303.799 219.346 306.216 218.269 309.314C217.099 312.715 215.395 316.942 213.756 320.931C211.285 326.954 208.96 332.423 208.814 333.625C208.755 334.16 208.583 335.118 208.345 336.353C207.38 341.385 205.24 350.968 204.183 354.845C203.396 357.738 202.253 361.701 201.467 364.422C201.467 364.501 201.421 364.58 201.401 364.653L231.02 364.362V364.917H231.113H231.073Z" fill="#212737"/>
<path opacity="0.1" d="M241.882 287.07C241.882 287.07 279.542 306.553 293.087 304.242L241.882 287.07Z" fill="black"/>
<path opacity="0.1" d="M318.523 279.145C318.523 279.145 355.192 291.033 367.415 292.684C379.638 294.335 318.523 279.145 318.523 279.145Z" fill="black"/>
<path opacity="0.1" d="M359.196 240.892C340.036 244.418 303.962 243.659 288.369 243.124C294.084 222.65 321.953 229.611 321.953 229.611C356.448 222.729 359.09 237.008 359.196 240.892Z" fill="black"/>
<path d="M359.196 239.571C340.036 243.097 303.962 242.338 288.369 241.803C294.084 221.329 321.953 228.29 321.953 228.29C356.448 221.408 359.09 235.687 359.196 239.571Z" fill="#212737"/>
<path d="M460.904 329.834C460.904 329.834 483.474 326.367 483.917 336.273C484.359 346.18 472.407 353.101 472.407 353.101L460.904 329.834Z" fill="#FBBEBE"/>
<path opacity="0.1" d="M347.495 216.983C346.524 217.417 345.532 217.801 344.522 218.132C337.4 220.589 330.218 223.066 322.719 223.964C315.22 224.862 307.351 224.07 300.81 220.332C300.123 219.944 299.461 219.514 298.828 219.044C298.101 204.514 296.35 190.314 296.35 190.314C296.35 190.314 353.831 163.236 347.224 184.701C344.595 193.372 345.487 205.551 347.495 216.983Z" fill="black"/>
<path d="M312.63 126.76C311.687 127.009 310.699 127.034 309.745 126.833C308.79 126.632 307.896 126.211 307.133 125.604L308.507 127.513C307.697 127.606 306.877 127.521 306.103 127.265C305.329 127.008 304.621 126.585 304.028 126.027C303.903 127.735 303.974 129.452 304.239 131.145C301.965 131.255 299.726 130.552 297.923 129.164C297.888 129.759 298.036 130.352 298.348 130.861C298.66 131.37 299.12 131.771 299.667 132.01C297.383 131.737 295.077 132.305 293.181 133.606C291.284 134.908 289.926 136.855 289.36 139.084L292.809 139.401C290.099 139.979 287.666 141.463 285.911 143.608C284.854 144.929 284.048 146.619 284.511 148.231C284.973 149.842 287.206 150.873 288.422 149.723C286.693 151.787 285.436 154.203 284.74 156.803C284.043 159.403 283.925 162.124 284.392 164.775C284.705 165.905 284.808 167.082 284.696 168.249C284.478 169.339 283.791 170.283 283.447 171.346C282.786 173.275 283.414 175.369 284.002 177.29L287.101 187.475C288.224 191.153 289.34 194.839 290.807 198.398C291.846 200.649 292.729 202.968 293.45 205.34C294.282 208.536 294.315 212.037 296.093 214.83C297.311 216.588 298.939 218.023 300.837 219.011C307.371 222.749 315.266 223.542 322.745 222.643C330.225 221.745 337.4 219.268 344.515 216.812C346.096 216.336 347.614 215.67 349.035 214.83C353.957 211.607 355.054 205.016 355.972 199.211C356.996 192.738 358.364 186.279 360.788 180.19C362.229 176.564 364.092 172.885 363.775 169.002C363.372 163.844 359.289 159.663 358.278 154.591C357.939 152.895 357.955 151.148 358.324 149.459C358.638 148.453 358.813 147.409 358.846 146.355C358.734 144.228 356.989 142.591 355.351 141.223C351.796 138.256 348.127 135.451 344.344 132.809C344.152 131.488 345.949 130.92 346.762 129.877C347.911 128.404 346.722 126.066 344.978 125.379C343.234 124.692 341.278 125.142 339.461 125.597C339.579 124.668 339.395 123.725 338.934 122.908C338.473 122.092 337.761 121.447 336.904 121.067C336.046 120.688 335.089 120.596 334.175 120.804C333.261 121.012 332.439 121.51 331.83 122.222C331.348 121.116 330.577 120.16 329.598 119.454C328.619 118.747 327.469 118.317 326.267 118.207C321.886 117.863 321.801 121.212 318.999 123.055C316.198 124.897 313.885 122.467 311.732 120.697C311.336 121.697 311.21 122.784 311.368 123.849C311.526 124.913 311.961 125.917 312.63 126.76Z" fill="#3F3D56"/>
<path d="M477.64 349.647C477.64 349.647 477.052 351.047 475.968 353.075C474.329 356.194 472.334 359.113 470.022 361.773L469.843 361.965H468.773L430.624 362.315H429.712L429.6 362.183L422.2 353.405L419.412 350.096L419.3 349.958L419.062 349.68L418.93 349.522L418.758 349.317L413.334 342.884L415.316 334.629L418.692 320.72L418.778 320.383L419.439 317.741L419.908 315.76L421.48 309.301L426.871 287.077L436.452 292.03L446.554 309.862L451.978 319.438H454.951C455.513 319.438 456.801 320.522 458.096 321.77C458.559 322.212 459.021 322.681 459.418 323.091C460.594 324.306 461.525 325.35 461.525 325.35C461.525 325.35 466.342 325.455 467.637 329.246C467.704 329.43 467.759 329.617 467.802 329.808C468.232 331.298 468.791 332.747 469.473 334.14C470.326 335.996 471.396 338.103 472.48 340.21C474.495 344.073 476.543 347.752 477.296 349.086L477.389 349.251L477.64 349.647Z" fill="#212737"/>
<path opacity="0.1" d="M420.886 319.828L420.82 320.773V320.839L420.707 322.358L419.829 334.583L418.765 349.311L418.461 353.458L417.8 362.335V362.447L347.105 363.107L231.093 364.362V364.917H231V364.362V364.177L231.298 354.693L231.866 336.161L232.355 320.449L232.401 318.884C232.43 317.939 232.651 317.01 233.051 316.154C233.452 315.297 234.022 314.531 234.728 313.903C235.434 313.274 236.261 312.796 237.158 312.498C238.056 312.199 239.004 312.087 239.946 312.167C243.065 312.431 247.115 312.755 251.958 313.098L253.94 313.244C281.907 315.185 333.594 317.695 385.75 314.564C386.846 314.505 387.95 314.439 389.053 314.36C397.14 313.851 405.22 313.197 413.222 312.378C414.233 312.272 415.255 312.389 416.217 312.721C417.178 313.053 418.055 313.591 418.786 314.298C419.516 315.005 420.083 315.864 420.446 316.814C420.809 317.763 420.959 318.781 420.886 319.795V319.828Z" fill="black"/>
<path d="M231.073 364.917V364.362L347.105 363.101L417.8 362.44H417.998V362.328L418.659 353.452L418.943 349.489L420.027 334.556L420.879 322.734V322.444C420.918 321.899 420.894 321.351 420.806 320.812C420.81 320.79 420.81 320.768 420.806 320.746C420.625 319.632 420.171 318.579 419.485 317.682C418.757 316.749 417.804 316.017 416.715 315.555C415.626 315.093 414.438 314.916 413.261 315.04C405.26 315.859 397.18 316.513 389.093 317.021C387.989 317.1 386.886 317.167 385.789 317.226C333.634 320.323 281.947 317.814 253.98 315.905L251.998 315.76C247.155 315.416 243.105 315.099 239.986 314.829C238.271 314.684 236.562 315.18 235.191 316.22C233.819 317.26 232.882 318.772 232.56 320.462C232.493 320.82 232.453 321.182 232.441 321.545L231.992 336.181L231.377 354.72L231.086 364.204V364.389V364.943L231.073 364.917Z" fill="#3F3D56"/>
<path opacity="0.1" d="M421.084 324.458L420.271 334.583L419.062 349.674L418.758 353.452L418.098 361.912L418.058 362.335V362.447L417.959 363.424L418.031 362.447H417.84L347.145 363.107L231.093 364.362V364.177L231.417 354.693L232.077 336.161L232.5 323.844C232.521 323.143 232.717 322.459 233.07 321.853C233.423 321.247 233.922 320.74 234.522 320.376C235.27 319.918 236.145 319.71 237.019 319.782C238.407 319.894 240.112 320.026 242.1 320.172C245.331 320.409 249.315 320.687 253.953 320.977C262.542 321.519 273.318 322.1 285.667 322.576C320.023 323.897 366.404 324.339 410.46 320.482C412.442 320.31 414.49 320.119 416.492 319.927C417.284 319.848 418.083 320 418.791 320.363C418.992 320.463 419.182 320.583 419.359 320.72C419.935 321.136 420.39 321.697 420.681 322.344C420.748 322.473 420.804 322.608 420.846 322.747C421.045 323.295 421.126 323.877 421.084 324.458Z" fill="black"/>
<path opacity="0.1" d="M196.955 333.499V335.606C196.955 336.372 196.738 337.123 196.328 337.77C195.919 338.418 195.334 338.936 194.642 339.265L168.148 339.774C167.444 339.451 166.847 338.933 166.429 338.28C166.01 337.628 165.788 336.87 165.789 336.095V334.114L196.955 333.499Z" fill="black"/>
<path d="M197.285 340.507L162.763 341.167V335.441L197.285 334.781V340.507Z" fill="#3F3D56"/>
<path opacity="0.1" d="M197.285 340.507L162.763 341.167V335.441L197.285 334.781V340.507Z" fill="black"/>
<path d="M198.606 340.507L164.085 341.167V335.441L198.606 334.781V340.507Z" fill="#3F3D56"/>
<g opacity="0.1">
<path opacity="0.1" d="M312.901 124.593C312.255 123.755 311.826 122.771 311.652 121.727C311.493 122.747 311.588 123.791 311.93 124.765C312.258 124.735 312.582 124.677 312.901 124.593Z" fill="black"/>
<path opacity="0.1" d="M304.51 128.979C304.385 128.169 304.304 127.353 304.265 126.535C304.265 127.347 304.265 128.166 304.265 128.985L304.51 128.979Z" fill="black"/>
<path opacity="0.1" d="M358.357 151.018C358.394 150.429 358.473 149.845 358.595 149.268C358.907 148.263 359.085 147.222 359.123 146.17C359.109 145.934 359.073 145.7 359.018 145.47C358.905 146.078 358.727 146.685 358.595 147.286C358.331 148.512 358.251 149.769 358.357 151.018Z" fill="black"/>
<path opacity="0.1" d="M344.614 130.61L345.334 131.132C345.942 130.693 346.51 130.202 347.033 129.666C347.281 129.322 347.435 128.919 347.479 128.497C347.523 128.075 347.456 127.649 347.284 127.262C347.218 127.412 347.133 127.554 347.033 127.684C346.22 128.728 344.423 129.302 344.614 130.61Z" fill="black"/>
<path opacity="0.1" d="M290.325 136.964C290.084 137.445 289.891 137.95 289.75 138.469C290.784 137.893 291.897 137.472 293.054 137.221L290.325 136.964Z" fill="black"/>
<path opacity="0.1" d="M299.436 129.778C299.002 129.539 298.587 129.267 298.194 128.966C298.177 129.227 298.197 129.489 298.253 129.745C298.648 129.726 299.043 129.737 299.436 129.778Z" fill="black"/>
<path opacity="0.1" d="M364.032 168.691C363.762 171.895 362.268 174.979 361.059 178.017C358.634 184.106 357.267 190.565 356.243 197.044C355.324 202.85 354.261 209.441 349.305 212.657C347.89 213.503 346.374 214.169 344.793 214.639C337.67 217.102 330.489 219.572 322.99 220.47C315.491 221.369 307.622 220.583 301.081 216.845C299.184 215.855 297.557 214.421 296.337 212.664C294.573 209.87 294.54 206.37 293.694 203.173C292.973 200.8 292.09 198.478 291.051 196.225C289.591 192.672 288.468 188.961 287.352 185.308C286.316 181.914 285.284 178.517 284.253 175.118C283.913 174.095 283.661 173.046 283.5 171.98C283.242 173.671 283.744 175.441 284.253 177.099C285.284 180.502 286.316 183.899 287.352 187.29C288.468 190.968 289.591 194.654 291.051 198.207C292.09 200.46 292.973 202.781 293.694 205.155C294.527 208.351 294.56 211.852 296.337 214.645C297.557 216.402 299.184 217.837 301.081 218.826C307.622 222.564 315.511 223.35 322.99 222.452C330.469 221.554 337.644 219.084 344.793 216.62C346.374 216.15 347.89 215.484 349.305 214.639C354.228 211.422 355.324 204.831 356.243 199.026C357.267 192.547 358.634 186.088 361.059 179.998C362.5 176.379 364.363 172.7 364.046 168.81C364.046 168.771 364.032 168.731 364.032 168.691Z" fill="black"/>
<path opacity="0.1" d="M284.953 166.135C284.953 166.135 284.953 166.089 284.953 166.063C285.073 164.898 284.969 163.722 284.649 162.595C284.518 161.871 284.432 161.138 284.392 160.403C284.316 161.799 284.402 163.2 284.649 164.577C284.755 165.092 284.874 165.614 284.953 166.135Z" fill="black"/>
<path opacity="0.1" d="M286.968 149.981C287.477 149.128 288.053 148.317 288.693 147.557C287.484 148.713 285.251 147.683 284.782 146.078C284.609 146.727 284.609 147.41 284.782 148.059C284.944 148.544 285.232 148.977 285.616 149.314C286 149.652 286.467 149.882 286.968 149.981Z" fill="black"/>
</g>
<path opacity="0.1" d="M451.985 319.432C451.985 319.432 454.079 327.027 451.985 333.631C449.89 340.236 451.985 319.432 451.985 319.432Z" fill="black"/>
<path opacity="0.1" d="M460.904 327.179C460.904 327.179 461.783 336.821 459.801 338.532C457.819 340.243 460.904 327.179 460.904 327.179Z" fill="black"/>
<path d="M131.473 226.441L198.606 225.78" stroke="#212737" stroke-width="2" stroke-miterlimit="10"/>
<path d="M131.473 234.677L198.606 234.023" stroke="#212737" stroke-width="2" stroke-miterlimit="10"/>
<path d="M131.473 242.919L198.606 242.259" stroke="#212737" stroke-width="2" stroke-miterlimit="10"/>
</g>
<defs>
<clipPath id="clip0">
<rect width="688" height="366" fill="white"/>
</clipPath>
</defs>
</svg>
