<svg width="588" height="461" viewBox="0 0 588 461" fill="none" xmlns="http://www.w3.org/2000/svg">
<g clip-path="url(#clip0)">
<path d="M191.338 113.878L121.656 171.624C124.529 174.777 126.733 178.479 128.134 182.507C129.534 186.535 130.103 190.805 129.805 195.059C129.507 199.313 128.349 203.462 126.401 207.256C124.452 211.05 121.754 214.409 118.469 217.132C115.185 219.854 111.382 221.882 107.29 223.093C103.199 224.305 98.9036 224.674 94.6651 224.18C90.4265 223.685 86.3323 222.337 82.6301 220.216C78.9279 218.096 75.6946 215.246 73.1257 211.841L10.6526 263.613L110.796 384.281L291.482 234.546L191.338 113.878Z" fill="#F2F2F2"/>
<path d="M588 288.712C588 360.034 545.57 384.936 493.229 384.936C440.889 384.936 398.459 360.034 398.459 288.712C398.459 217.391 493.229 126.66 493.229 126.66C493.229 126.66 588 217.391 588 288.712Z" fill="#F2F2F2"/>
<path d="M489.777 374.026L490.748 314.337L531.141 240.493L490.9 304.974L491.336 278.135L519.176 224.709L491.452 271.032V271.033L492.236 222.762L522.047 180.228L492.36 215.171L492.85 126.659L489.769 243.833L490.022 238.999L459.713 192.641L489.536 248.278L486.712 302.188L486.628 300.757L451.688 251.971L486.522 305.813L486.169 312.555L486.106 312.656L486.134 313.209L478.97 449.984H488.543L489.691 379.337L524.44 325.628L489.777 374.026Z" fill="#3F3D56"/>
<path d="M410.786 461C483.95 461 543.261 456.581 543.261 451.13C543.261 445.679 483.95 441.259 410.786 441.259C337.623 441.259 278.312 445.679 278.312 451.13C278.312 456.581 337.623 461 410.786 461Z" fill="#3F3D56"/>
<path d="M422.988 0H402.071V454.033H422.988V0Z" fill="#3F3D56"/>
<path d="M531.334 434.937C531.334 447.983 523.574 452.538 514 452.538C513.778 452.538 513.557 452.535 513.336 452.53C512.892 452.521 512.453 452.5 512.019 452.47C503.378 451.859 496.666 447.07 496.666 434.937C496.666 422.382 512.722 406.539 513.928 405.366L513.93 405.364C513.977 405.319 514 405.296 514 405.296C514 405.296 531.334 421.892 531.334 434.937Z" fill="#F1CEA6"/>
<path d="M513.369 450.542L519.709 441.69L513.353 451.514L513.336 452.53C512.892 452.521 512.453 452.5 512.019 452.47L512.702 439.418L512.697 439.317L512.709 439.298L512.773 438.065L506.401 428.217L512.793 437.141L512.808 437.403L513.324 427.541L507.869 417.364L513.391 425.811L513.928 405.366L513.931 405.296V405.364L513.841 421.486L519.271 415.094L513.819 422.874L513.675 431.704L518.745 423.23L513.654 433.003L513.574 437.911L520.935 426.118L513.546 439.624L513.369 450.542Z" fill="#3F3D56"/>
<path d="M377.219 425.171L373.511 422.418C373.511 422.418 371.056 436.118 373.795 438.171C376.534 440.224 386.805 443.645 386.805 447.75C386.805 451.856 410.085 457.329 410.77 451.171C411.455 445.013 408.716 441.592 408.716 441.592C408.716 441.592 397.76 430.645 396.391 428.592C395.021 426.539 391.598 422.434 391.598 422.434L377.219 425.171Z" fill="#2F2E41"/>
<path d="M431.996 254.8C431.996 254.8 431.894 255.402 431.716 256.504C431.551 257.482 431.325 258.864 431.051 260.568C428.175 278.105 419.788 329.729 420.356 331.433C421.041 333.486 425.834 341.012 420.356 343.065C419.829 343.263 419.261 343.906 418.651 344.919C417.475 347.1 416.505 349.386 415.755 351.747C412.489 361.217 408.997 376.372 406.977 386.868C406.093 391.48 405.491 395.188 405.313 397.132C405.251 397.581 405.244 398.036 405.292 398.486C405.977 401.223 401.184 410.802 399.13 413.539C397.076 416.276 393.652 419.013 394.337 421.75C395.021 424.487 377.219 432.013 375.165 427.224C373.11 422.434 373.11 419.697 372.426 418.329C371.741 416.96 371.056 407.381 374.48 406.013C377.904 404.644 375.849 380.697 379.273 375.907C380.416 374.313 382.162 368.914 383.991 362.421C384.71 359.876 385.435 357.166 386.148 354.45C389.037 343.318 391.598 332.117 391.598 332.117L390.913 252.063L428.573 247.274L429.538 249.402L431.462 253.623L431.996 254.8Z" fill="#2F2E41"/>
<path d="M434.05 386.17C434.05 386.17 439.528 380.697 442.267 386.17C445.006 391.644 447.745 412.855 452.538 417.645C457.331 422.434 463.493 446.382 456.646 447.75C449.799 449.119 442.267 445.698 441.582 441.592C440.898 437.487 426.519 416.276 426.519 414.223C426.519 412.171 436.105 404.644 436.105 404.644L434.05 386.17Z" fill="#2F2E41"/>
<path d="M349.83 217.168C349.83 217.168 358.731 297.222 360.786 304.748C362.84 312.275 373.795 341.012 377.219 345.801C380.642 350.591 402.553 389.592 405.292 391.644C408.031 393.697 413.509 399.171 413.509 399.171C413.509 399.171 423.78 409.434 425.149 411.487C426.518 413.539 438.159 407.381 438.843 403.276C439.528 399.171 438.159 392.328 437.474 389.592C436.789 386.855 438.843 382.749 436.789 380.697C434.735 378.644 424.464 368.381 424.464 363.591C424.464 358.802 406.662 330.749 399.814 324.591C392.967 318.433 394.337 308.169 394.337 308.169V266.432L431.996 254.8C431.996 254.8 429.942 221.958 425.149 221.958C420.356 221.958 357.362 211.01 349.83 217.168Z" fill="#2F2E41"/>
<path d="M405.292 102.903C417.771 102.903 427.888 92.7944 427.888 80.3242C427.888 67.854 417.771 57.7449 405.292 57.7449C392.813 57.7449 382.696 67.854 382.696 80.3242C382.696 92.7944 392.813 102.903 405.292 102.903Z" fill="#9F616A"/>
<path d="M397.76 98.1139C397.76 98.1139 395.021 108.377 391.598 111.114C388.174 113.851 400.499 125.483 400.499 125.483L423.78 126.851L427.888 113.851C427.888 113.851 420.356 98.7981 422.41 89.219C424.464 79.64 397.76 98.1139 397.76 98.1139Z" fill="#9F616A"/>
<path d="M388.174 109.746C388.174 109.746 394.337 110.43 395.706 112.482C397.076 114.535 406.662 120.693 414.194 119.325C421.726 117.956 426.519 115.904 427.888 116.588C429.257 117.272 431.996 131.641 431.996 131.641L424.464 153.536L425.834 213.747L427.888 230.168C427.888 230.168 431.996 224.695 415.563 228.116C399.13 231.537 377.904 225.379 371.056 224.695C364.209 224.01 352.569 221.958 351.884 217.852C351.2 213.747 353.938 198.694 353.938 198.694L364.894 152.851L371.741 128.22L388.174 109.746Z" fill="#3F3D56"/>
<path d="M394.651 106.657C394.651 106.657 388.859 103.588 386.805 106.325C384.75 109.061 358.731 113.167 358.731 115.219C358.731 117.272 353.253 172.694 354.623 177.483C355.992 182.273 351.884 187.747 351.884 187.747L347.091 208.273C347.091 208.273 334.081 247.274 339.559 248.642C345.037 250.011 349.83 248.642 351.884 248.642C353.938 248.642 353.253 222.642 358.731 215.8C364.209 208.957 371.741 191.852 373.11 188.431C374.48 185.01 391.598 137.799 390.913 132.325C390.228 126.851 394.651 106.657 394.651 106.657Z" fill="#D0CDE1"/>
<path d="M423.095 109.746C423.095 109.746 428.573 109.746 429.257 111.114C429.942 112.482 436.789 121.377 439.528 123.43C442.267 125.483 451.853 134.378 451.853 136.43C451.853 138.483 431.996 153.536 431.996 153.536C431.996 153.536 423.78 193.905 427.888 207.589C431.996 221.273 438.159 254.116 435.42 256.169C432.681 258.221 426.519 258.906 426.519 256.169C426.519 253.432 422.41 224.01 418.987 217.852C415.563 211.694 405.292 172.694 409.401 161.746C413.509 150.799 423.095 109.746 423.095 109.746Z" fill="#D0CDE1"/>
<path d="M332.712 177.483C332.712 177.483 332.027 198.694 339.559 209.642C347.091 220.589 351.884 232.905 351.884 232.905C351.884 232.905 364.209 229.484 366.263 225.379C368.317 221.273 381.327 224.695 381.327 223.326C381.327 221.958 365.578 215.116 364.209 213.747C362.84 212.379 358.047 212.379 355.308 209.642C352.569 206.905 351.884 200.747 351.884 200.747L349.145 182.957L332.712 177.483Z" fill="#9F616A"/>
<path d="M389.73 66.4023C387.991 66.2445 386.198 66.0709 384.662 65.243C381.22 63.3879 380.307 58.1051 382.927 55.2039C383.65 54.4657 384.458 53.8164 385.335 53.2697L390.539 49.7296C392.841 48.164 395.198 46.5726 397.883 45.8345C400.311 45.167 402.876 45.2356 405.389 45.3917C410.269 45.6948 415.179 46.3208 419.769 48.0044C424.359 49.688 428.64 52.5046 431.42 56.5238C435.827 62.8955 435.888 71.4888 433.46 78.8446C431.033 86.2003 426.423 92.6057 421.88 98.8812L419.523 87.3883C419.313 86.3646 419.041 85.2427 418.189 84.6369C416.072 83.1311 413.481 86.2227 410.882 86.2027C409.212 86.1898 407.81 84.8173 407.178 83.273C406.545 81.7287 406.503 80.0186 406.357 78.3562C406.047 74.8353 404.815 69.9363 401.478 67.9945C398.369 66.185 393.224 66.7195 389.73 66.4023Z" fill="#2F2E41"/>
<path opacity="0.1" d="M390.997 255.352C390.997 255.352 393.31 322.196 394.679 324.249C396.048 326.301 394.679 255.142 394.679 255.142L390.997 255.352Z" fill="black"/>
<path d="M364.209 115.219H358.731C358.731 115.219 335.451 146.694 338.19 148.746C340.929 150.799 338.19 156.273 338.19 156.273L332.712 166.536C332.712 166.536 325.865 172.694 327.919 174.062C329.973 175.431 332.712 180.905 332.712 180.905C332.712 180.905 346.407 178.852 350.515 187.062L359.396 175.859L364.209 115.219Z" fill="#D0CDE1"/>
<path d="M426.518 174.062C426.518 174.062 411.455 174.747 394.337 163.799L377.219 156.273C377.219 156.273 362.155 133.009 360.785 137.114C359.416 141.22 362.84 149.43 362.84 149.43C362.84 149.43 342.181 158.984 341.644 160.247C341.107 161.51 353.254 158.325 353.254 158.325C353.254 158.325 351.199 171.325 362.84 172.01C374.48 172.694 377.903 169.957 377.903 169.957C377.903 169.957 427.203 211.01 435.42 198.01C443.636 185.01 426.518 174.062 426.518 174.062Z" fill="#9F616A"/>
<path d="M444.321 133.693L451.853 136.43V156.957L454.592 161.062C454.592 161.062 453.907 169.273 451.853 171.325C449.799 173.378 445.691 172.694 447.06 177.483C447.883 180.606 448.115 183.855 447.745 187.062C447.745 187.062 435.42 202.799 434.735 200.747C434.05 198.694 424.464 173.378 423.095 173.378C421.725 173.378 436.789 133.693 436.789 133.693H444.321Z" fill="#D0CDE1"/>
<path d="M354.281 237.353C354.281 237.353 347.201 230.51 350.741 230.168C354.281 229.826 366.605 222.984 368.66 226.405C370.714 229.826 354.281 237.353 354.281 237.353Z" fill="#2F2E41"/>
<path d="M246.191 438.356C258.5 417.835 264.984 394.351 264.949 370.426C264.949 297.315 205.638 238.048 132.474 238.048C59.3107 238.048 -9.58663e-05 297.315 -9.58663e-05 370.426C-0.0359977 394.351 6.44847 417.835 18.7574 438.356H246.191Z" fill="#3F3D56"/>
<path d="M132.474 374.49C139.534 374.49 145.257 368.771 145.257 361.717C145.257 354.662 139.534 348.943 132.474 348.943C125.415 348.943 119.692 354.662 119.692 361.717C119.692 368.771 125.415 374.49 132.474 374.49Z" fill="#F1CEA6"/>
<path d="M30.7944 389.005C34.3242 389.005 37.1857 386.146 37.1857 382.618C37.1857 379.091 34.3242 376.232 30.7944 376.232C27.2646 376.232 24.4031 379.091 24.4031 382.618C24.4031 386.146 27.2646 389.005 30.7944 389.005Z" fill="#F1CEA6"/>
<path d="M34.5446 333.689C38.0744 333.689 40.9359 330.829 40.9359 327.302C40.9359 323.775 38.0744 320.915 34.5446 320.915C31.0148 320.915 28.1533 323.775 28.1533 327.302C28.1533 330.829 31.0148 333.689 34.5446 333.689Z" fill="#F1CEA6"/>
<path d="M66.27 288.203C69.7998 288.203 72.6613 285.344 72.6613 281.817C72.6613 278.29 69.7998 275.43 66.27 275.43C62.7401 275.43 59.8787 278.29 59.8787 281.817C59.8787 285.344 62.7401 288.203 66.27 288.203Z" fill="#F1CEA6"/>
<path d="M116.907 265.543C120.437 265.543 123.299 262.683 123.299 259.156C123.299 255.629 120.437 252.77 116.907 252.77C113.378 252.77 110.516 255.629 110.516 259.156C110.516 262.683 113.378 265.543 116.907 265.543Z" fill="#F1CEA6"/>
<path d="M171.992 272.18C175.522 272.18 178.383 269.321 178.383 265.793C178.383 262.266 175.522 259.407 171.992 259.407C168.462 259.407 165.601 262.266 165.601 265.793C165.601 269.321 168.462 272.18 171.992 272.18Z" fill="#F1CEA6"/>
<path d="M215.788 306.219C219.318 306.219 222.179 303.36 222.179 299.833C222.179 296.306 219.318 293.446 215.788 293.446C212.258 293.446 209.396 296.306 209.396 299.833C209.396 303.36 212.258 306.219 215.788 306.219Z" fill="#F1CEA6"/>
<path d="M235.783 357.937C239.313 357.937 242.175 355.077 242.175 351.55C242.175 348.023 239.313 345.163 235.783 345.163C232.254 345.163 229.392 348.023 229.392 351.55C229.392 355.077 232.254 357.937 235.783 357.937Z" fill="#F1CEA6"/>
<path d="M226.268 412.558C229.798 412.558 232.659 409.699 232.659 406.172C232.659 402.644 229.798 399.785 226.268 399.785C222.738 399.785 219.876 402.644 219.876 406.172C219.876 409.699 222.738 412.558 226.268 412.558Z" fill="#F1CEA6"/>
<path d="M132.474 361.717L198.131 311.785" stroke="#F1CEA6" stroke-width="4" stroke-miterlimit="10"/>
<path d="M193.216 123.731C197.951 123.731 201.789 119.896 201.789 115.164C201.789 110.433 197.951 106.597 193.216 106.597C188.481 106.597 184.643 110.433 184.643 115.164C184.643 119.896 188.481 123.731 193.216 123.731Z" stroke="#3F3D56" stroke-width="2" stroke-miterlimit="10"/>
<path d="M242.023 223.595C246.758 223.595 250.596 219.76 250.596 215.028C250.596 210.297 246.758 206.461 242.023 206.461C237.288 206.461 233.449 210.297 233.449 215.028C233.449 219.76 237.288 223.595 242.023 223.595Z" fill="#3F3D56"/>
<path d="M97.7421 217.113C111.469 217.113 122.597 205.993 122.597 192.276C122.597 178.559 111.469 167.44 97.7421 167.44C84.0153 167.44 72.8875 178.559 72.8875 192.276C72.8875 205.993 84.0153 217.113 97.7421 217.113Z" fill="#F2F2F2"/>
</g>
<defs>
<clipPath id="clip0">
<rect width="588" height="461" fill="white"/>
</clipPath>
</defs>
</svg>
