<svg width="258" height="215" viewBox="0 0 258 215" fill="none" xmlns="http://www.w3.org/2000/svg">
<path d="M214.639 203.01L214.192 208.973L205.109 205.992L208.831 201.52L214.639 203.01Z" fill="#FEB8B8"/>
<path d="M247.695 201.073L247.248 206.886L242.185 207.631L239.207 204.799L242.632 199.284L247.695 201.073Z" fill="#FEB8B8"/>
<path d="M251.418 126.842C251.418 126.842 255.438 131.612 250.375 138.916C245.312 146.22 239.208 153.374 239.208 153.374L227.89 174.839C227.89 174.839 222.083 195.856 220.742 196.452C219.402 197.048 218.658 194.663 219.402 197.197C220.147 199.731 219.7 199.582 219.105 199.732C218.509 199.881 216.871 199.583 217.467 200.626C218.062 201.67 218.509 201.67 217.318 201.67C216.127 201.67 215.68 200.924 215.68 201.968C215.68 203.011 214.638 205.396 214.638 205.396C214.638 205.396 207.341 203.309 207.044 202.415C206.746 201.52 208.979 201.073 208.533 200.179C208.086 199.285 207.937 199.285 207.937 197.943C207.937 196.602 208.831 196.304 208.831 196.304C208.831 196.304 209.575 196.006 209.277 195.409C208.979 194.813 207.788 195.111 209.277 194.366C210.766 193.62 216.872 170.814 216.872 170.814C216.872 170.814 216.872 159.484 218.807 155.759C220.743 152.033 219.254 125.5 223.871 125.202C228.489 124.904 251.418 126.842 251.418 126.842Z" fill="#2F2E41"/>
<path d="M249.929 135.338L249.035 158.442C249.035 158.442 253.502 180.8 252.013 187.657C250.524 194.513 251.567 193.619 250.673 194.812C249.779 196.004 249.035 195.408 249.779 196.451C250.524 197.495 250.969 197.793 249.779 198.986C248.59 200.179 247.993 203.011 247.993 203.011L240.399 202.266C240.399 202.266 242.334 198.837 241.589 198.092C240.843 197.346 238.908 198.539 240.399 196.901C241.889 195.263 242.781 196.006 241.888 195.261C240.994 194.516 239.654 194.814 240.845 193.622C242.036 192.429 243.377 192.431 242.186 191.982C240.994 191.533 239.653 191.982 240.25 191.088C240.846 190.193 241.59 189.15 241.59 189.15L239.803 175.586C239.803 175.586 237.719 171.114 238.314 169.176C238.91 167.239 235.782 151.289 235.782 151.289L249.929 135.338Z" fill="#2F2E41"/>
<path d="M246.654 204.054C246.654 204.054 248.143 202.563 248.589 203.457C249.036 204.352 252.311 212.401 250.376 212.997C248.441 213.593 245.611 214.188 244.122 213.742C242.633 213.296 239.506 211.207 235.784 211.207C232.062 211.207 228.935 209.568 228.935 208.972C228.935 208.376 228.339 204.798 231.168 204.798C233.997 204.798 239.209 201.519 239.209 201.519C239.209 201.519 240.398 199.134 240.995 199.283C241.592 199.432 241.144 204.202 241.144 204.202C241.144 204.202 244.568 207.482 246.654 204.054Z" fill="#2F2E41"/>
<path d="M213.597 205.991C213.597 205.991 214.937 202.712 216.277 203.456C217.617 204.201 216.724 213.443 216.724 213.443C216.724 213.443 215.534 215.38 212.108 214.933C208.682 214.486 199.6 213.443 197.515 213.89C195.431 214.337 189.773 211.803 191.262 208.374C191.262 208.374 192.006 206.437 195.58 206.586C199.154 206.735 205.705 202.412 205.705 202.412C205.705 202.412 206.748 199.431 207.045 199.729C207.343 200.027 207.641 205.244 207.641 205.244C207.641 205.244 211.512 207.78 213.597 205.991Z" fill="#2F2E41"/>
<path d="M233.103 68.5606C237.872 68.5606 241.739 64.6899 241.739 59.9152C241.739 55.1405 237.872 51.2698 233.103 51.2698C228.333 51.2698 224.466 55.1405 224.466 59.9152C224.466 64.6899 228.333 68.5606 233.103 68.5606Z" fill="#FEB8B8"/>
<path d="M239.803 60.5112C239.803 60.5112 244.419 69.7528 246.057 70.6472C247.695 71.5417 234.889 77.0569 234.889 77.0569C234.889 77.0569 232.805 67.9644 230.274 66.0268C227.742 64.0891 239.803 60.5112 239.803 60.5112Z" fill="#FEB8B8"/>
<path d="M226.551 136.083L225.956 141.747C225.956 141.747 219.553 139.512 221.638 135.338L226.551 136.083Z" fill="#FEB8B8"/>
<path d="M224.02 127.587C228.488 132.356 252.162 128.331 252.162 128.331L251.865 124.903L254.843 121.775L253.95 107.166C253.95 107.166 256.629 100.31 257.075 89.8764C257.102 89.235 257.064 88.5926 256.96 87.9592C255.425 78.6123 240.221 72.5922 239.803 72.7336C239.593 72.803 237.355 73.9704 235.02 75.1987C232.338 76.6087 229.53 78.0998 229.53 78.0998C225.956 79.4435 226.552 100.908 225.36 102.845C224.168 104.783 225.36 111.488 225.36 111.488L224.021 117.897C224.021 117.897 219.552 122.818 224.02 127.587Z" fill="#F0F0F0"/>
<path opacity="0.1" d="M238.452 80.2672C238.452 80.2672 242.621 92.788 241.728 101.284C240.834 109.781 231.156 134.077 231.156 134.077L227.881 135.866V140.039L225.577 133.792L231.913 120.529C231.913 120.529 224.007 74.7523 238.452 80.2672Z" fill="black"/>
<path opacity="0.1" d="M234.542 76.5104C238.862 74.1259 245.414 80.3888 252.263 87.0941C254.722 89.5014 256.145 89.2593 256.961 87.9589C255.426 78.612 240.222 72.592 239.804 72.7334C239.594 72.8027 237.356 73.9702 235.02 75.1985L234.542 76.5104Z" fill="black"/>
<path d="M234.543 75.3582L236.33 70.4394C236.33 70.4394 248.54 64.6261 256.581 70.4394L257.921 78.7865C257.921 78.7865 259.111 92.6488 252.262 85.9413C245.414 79.2338 238.861 72.9732 234.543 75.3582Z" fill="#F0F0F0"/>
<path d="M238.017 78.2493C238.017 78.2493 242.186 90.77 241.293 99.2664C240.399 107.763 230.721 132.059 230.721 132.059L227.445 133.849V138.023L220.596 136.085L222.085 131.166C222.085 131.166 219.702 128.185 221.34 127.291C222.979 126.396 222.681 121.477 222.681 121.477C222.681 121.477 223.573 72.734 238.017 78.2493Z" fill="#F0F0F0"/>
<path d="M240.802 63.5344C240.661 62.8662 240.68 62.1473 240.36 61.5442C239.88 60.6399 238.777 60.2616 237.758 60.1724C236.457 60.0591 235.146 60.2845 233.843 60.1953C232.54 60.1061 231.149 59.609 230.5 58.4745C230.241 58.0219 230.114 57.489 229.771 57.0966C229.057 56.28 227.755 56.4064 226.729 56.7564C225.702 57.1063 224.632 57.6176 223.583 57.3439C222.701 54.8731 223.787 52.0229 225.666 50.1934C227.545 48.3638 230.079 47.3792 232.595 46.6454C235.915 45.6773 239.65 45.1054 242.702 46.7315C247.128 49.0894 248.689 55.3305 248.281 59.9821C248.127 61.7405 247.874 63.7316 246.454 64.9187C244.373 66.6588 241.43 66.5094 240.802 63.5344Z" fill="#2F2E41"/>
<path d="M186.615 0.105957H0.0800781V119.697H186.615V0.105957Z" fill="#E6E6E6"/>
<path d="M181.891 15.1055H6.02393V112.621H181.891V15.1055Z" fill="white"/>
<path d="M186.535 0H0V7.93296H186.535V0Z" fill="#212737"/>
<path d="M5.88929 5.5263C6.70053 5.5263 7.35818 4.86797 7.35818 4.05587C7.35818 3.24378 6.70053 2.58545 5.88929 2.58545C5.07805 2.58545 4.42041 3.24378 4.42041 4.05587C4.42041 4.86797 5.07805 5.5263 5.88929 5.5263Z" fill="white"/>
<path d="M11.464 5.5263C12.2752 5.5263 12.9329 4.86797 12.9329 4.05587C12.9329 3.24378 12.2752 2.58545 11.464 2.58545C10.6528 2.58545 9.99512 3.24378 9.99512 4.05587C9.99512 4.86797 10.6528 5.5263 11.464 5.5263Z" fill="white"/>
<path d="M17.0392 5.5263C17.8504 5.5263 18.5081 4.86797 18.5081 4.05587C18.5081 3.24378 17.8504 2.58545 17.0392 2.58545C16.228 2.58545 15.5703 3.24378 15.5703 4.05587C15.5703 4.86797 16.228 5.5263 17.0392 5.5263Z" fill="white"/>
<path d="M36.7922 28.7737L25.1592 40.2735L36.7922 51.7731L39.4096 49.1529L30.6131 40.3459L39.4832 31.4666L36.7922 28.7737Z" fill="#212737"/>
<path d="M46.3238 28.7737L57.9565 40.2735L46.3238 51.7731L43.7063 49.1529L52.5035 40.3462L43.6328 31.4666L46.3238 28.7737Z" fill="#212737"/>
<path d="M83.9517 31.6594C83.0002 31.6594 82.229 32.2073 82.229 32.8828C82.229 33.5583 83.0002 34.1062 83.9517 34.1062H165.164C166.116 34.1062 166.887 33.5583 166.887 32.8828C166.887 32.2073 166.116 31.6594 165.164 31.6594H83.9517Z" fill="#E6E6E6"/>
<path d="M164.357 98.6848H27.7374C26.3408 98.6848 25.209 97.8777 25.2075 96.8831V72.7449C25.209 71.7502 26.3408 70.9431 27.7374 70.9431H164.357C165.753 70.9431 166.885 71.7502 166.887 72.7449V96.8827C166.885 97.8774 165.753 98.6836 164.357 98.6848ZM27.7374 71.6632C26.8994 71.6632 26.2203 72.1476 26.2194 72.7443V96.8821C26.2194 97.4789 26.8994 97.9626 27.7374 97.9632H164.357C165.195 97.9632 165.874 97.4789 165.875 96.8821V72.7449C165.875 72.1482 165.195 71.6644 164.357 71.6638L27.7374 71.6632Z" fill="#E6E6E6"/>
<path d="M41.8061 90.9224C45.1818 90.9224 47.9184 88.183 47.9184 84.8037C47.9184 81.4245 45.1818 78.6851 41.8061 78.6851C38.4304 78.6851 35.6938 81.4245 35.6938 84.8037C35.6938 88.183 38.4304 90.9224 41.8061 90.9224Z" fill="#E6E6E6"/>
<path d="M59.045 79.9102C58.7208 79.9097 58.4098 80.0382 58.1804 80.2674C57.9509 80.4965 57.8217 80.8075 57.8213 81.132C57.8209 81.4564 57.9492 81.7677 58.1781 81.9975C58.407 82.2272 58.7177 82.3565 59.0418 82.3569H116.66C116.984 82.3569 117.295 82.228 117.524 81.9986C117.753 81.7692 117.882 81.458 117.882 81.1335C117.882 80.8091 117.753 80.4979 117.524 80.2685C117.295 80.0391 116.984 79.9102 116.66 79.9102H59.045Z" fill="#212737"/>
<path d="M59.045 87.2507C58.8845 87.2505 58.7255 87.282 58.5772 87.3432C58.4288 87.4045 58.294 87.4945 58.1804 87.6079C57.9509 87.8371 57.8217 88.1481 57.8213 88.4725C57.8209 88.797 57.9492 89.1083 58.1781 89.338C58.407 89.5678 58.7177 89.6971 59.0418 89.6975H83.8363C84.1604 89.6979 84.4714 89.5694 84.7009 89.3403C84.9304 89.1111 85.0595 88.8001 85.0599 88.4757C85.0604 88.1512 84.932 87.8399 84.7031 87.6102C84.4742 87.3804 84.1636 87.2512 83.8394 87.2507H59.045Z" fill="#212737"/>
<path d="M83.3585 38.9888C83.0514 39.0136 82.7648 39.1532 82.5559 39.3799C82.347 39.6066 82.231 39.9037 82.231 40.2121C82.231 40.5206 82.347 40.8177 82.5559 41.0444C82.7648 41.2711 83.0514 41.4107 83.3585 41.4355H136.583C136.89 41.4107 137.177 41.2711 137.386 41.0444C137.594 40.8177 137.711 40.5206 137.711 40.2121C137.711 39.9037 137.594 39.6066 137.386 39.3799C137.177 39.1532 136.89 39.0136 136.583 38.9888H83.3585Z" fill="#E6E6E6"/>
<path d="M83.7089 46.3179C82.8916 46.3179 82.229 46.8657 82.229 47.5412C82.229 48.2167 82.8916 48.7646 83.7089 48.7646H153.477C154.294 48.7646 154.957 48.2167 154.957 47.5412C154.957 46.8657 154.294 46.3179 153.477 46.3179H83.7089Z" fill="#E6E6E6"/>
</svg>
