<svg width="446" height="310" viewBox="0 0 446 310" fill="none" xmlns="http://www.w3.org/2000/svg">
<path d="M88.8625 310C137.94 310 177.725 306.981 177.725 303.258C177.725 299.534 137.94 296.515 88.8625 296.515C39.7851 296.515 0 299.534 0 303.258C0 306.981 39.7851 310 88.8625 310Z" fill="#E6E6E6"/>
<path d="M67.9248 68.7836C83.3896 62.2123 102.651 66.3758 121.462 69.2654C121.637 65.7661 123.759 61.5072 121.536 59.0659C118.836 56.0999 119.085 52.9835 120.71 49.8492C124.865 41.8341 118.912 33.3057 112.901 26.2144C111.546 24.6197 109.834 23.3666 107.903 22.5571C105.973 21.7476 103.878 21.4045 101.79 21.5555L90.6554 22.35C87.946 22.5434 85.3602 23.5588 83.2442 25.2604C81.1282 26.9619 79.5828 29.2685 78.8148 31.8715C76.1561 35.4839 74.7331 39.0862 75.629 42.6698C71.6467 45.3886 70.9777 48.6704 72.7672 52.3701C74.2846 54.6996 74.2684 56.9671 72.6981 59.1718C70.6359 61.9828 69.0563 65.117 68.0243 68.4461L67.9248 68.7836Z" fill="#2F2E41"/>
<path d="M435.431 267.99H120.24C117.437 267.99 114.749 266.878 112.767 264.898C110.785 262.918 109.672 260.232 109.672 257.432C223.929 244.166 336.038 244.166 446 257.432C446 260.232 444.886 262.918 442.904 264.898C440.922 266.878 438.234 267.99 435.431 267.99Z" fill="#2F2E41"/>
<path d="M446 258.053L109.672 257.432L148.651 191.909L148.838 191.599V47.1948C148.837 45.4421 149.183 43.7064 149.854 42.0871C150.526 40.4677 151.51 38.9963 152.75 37.7569C153.991 36.5176 155.464 35.5345 157.085 34.8638C158.706 34.1931 160.443 33.848 162.197 33.8481H391.609C393.364 33.848 395.101 34.1931 396.722 34.8638C398.343 35.5345 399.816 36.5176 401.056 37.7569C402.297 38.9963 403.281 40.4677 403.952 42.0871C404.624 43.7064 404.969 45.4421 404.969 47.1948V192.593L446 258.053Z" fill="#3F3D56"/>
<path d="M161.893 43.1641C160.739 43.1654 159.633 43.6238 158.817 44.4389C158.001 45.2539 157.542 46.3589 157.541 47.5116V179.178C157.542 180.33 158.001 181.435 158.817 182.25C159.633 183.065 160.739 183.524 161.893 183.525H393.779C394.932 183.524 396.038 183.065 396.854 182.25C397.67 181.435 398.129 180.33 398.13 179.178V47.5116C398.129 46.3589 397.67 45.2539 396.854 44.4389C396.039 43.6239 394.932 43.1654 393.779 43.1641H161.893Z" fill="white"/>
<path d="M162.865 200.915C162.509 200.915 162.16 201.018 161.86 201.21C161.559 201.402 161.32 201.676 161.171 201.999L149.16 228.084C149.029 228.368 148.972 228.68 148.994 228.992C149.015 229.304 149.115 229.605 149.284 229.868C149.453 230.131 149.685 230.348 149.959 230.498C150.234 230.647 150.541 230.726 150.854 230.726H403.433C403.751 230.726 404.064 230.645 404.341 230.49C404.619 230.336 404.852 230.113 405.019 229.842C405.187 229.572 405.282 229.264 405.296 228.947C405.31 228.629 405.243 228.314 405.101 228.03L392.046 201.945C391.892 201.635 391.654 201.374 391.359 201.192C391.064 201.01 390.724 200.914 390.378 200.915H162.865Z" fill="#2F2E41"/>
<path d="M276.904 40.9903C278.449 40.9903 279.702 39.7391 279.702 38.1956C279.702 36.652 278.449 35.4008 276.904 35.4008C275.359 35.4008 274.106 36.652 274.106 38.1956C274.106 39.7391 275.359 40.9903 276.904 40.9903Z" fill="white"/>
<path d="M252.077 235.695C251.667 235.695 251.269 235.83 250.943 236.079C250.618 236.329 250.383 236.678 250.276 237.073L247.263 248.252C247.189 248.528 247.179 248.818 247.235 249.099C247.29 249.379 247.41 249.643 247.584 249.87C247.758 250.097 247.982 250.281 248.239 250.408C248.495 250.534 248.778 250.6 249.064 250.6H306.36C306.658 250.6 306.951 250.529 307.215 250.393C307.479 250.257 307.707 250.06 307.879 249.818C308.052 249.576 308.164 249.296 308.206 249.002C308.248 248.708 308.219 248.408 308.122 248.127L304.249 236.948C304.122 236.582 303.884 236.265 303.568 236.04C303.252 235.816 302.874 235.695 302.486 235.695H252.077Z" fill="#2F2E41"/>
<path d="M404.969 189.425V191.909H148.651L148.844 191.599V189.425H404.969Z" fill="#2F2E41"/>
<path d="M397.82 86.9492C421.854 86.9492 441.338 67.485 441.338 43.4746C441.338 19.4643 421.854 0 397.82 0C373.786 0 354.303 19.4643 354.303 43.4746C354.303 67.485 373.786 86.9492 397.82 86.9492Z" fill="#212737"/>
<path d="M415.849 62.4172H379.791C379.132 62.4165 378.5 62.1546 378.034 61.6888C377.568 61.2231 377.305 60.5916 377.305 59.9329V38.1956C377.305 37.5369 377.568 36.9054 378.034 36.4397C378.5 35.974 379.132 35.712 379.791 35.7113H415.849C416.508 35.712 417.14 35.974 417.606 36.4397C418.073 36.9054 418.335 37.5369 418.335 38.1956V59.9329C418.335 60.5915 418.073 61.2231 417.606 61.6888C417.14 62.1546 416.508 62.4165 415.849 62.4172ZM379.791 38.1956V59.9329H415.851L415.849 38.1956L379.791 38.1956Z" fill="white"/>
<path d="M409.01 38.1956H386.63V28.2585C386.63 21.0611 391.336 15.8372 397.82 15.8372C404.304 15.8372 409.01 21.0611 409.01 28.2585L409.01 38.1956ZM389.117 35.7113H406.524V28.2585C406.524 22.4078 402.945 18.3215 397.82 18.3215C392.696 18.3215 389.117 22.4078 389.117 28.2585L389.117 35.7113Z" fill="white"/>
<path d="M397.82 50.9274C399.193 50.9274 400.306 49.8152 400.306 48.4432C400.306 47.0711 399.193 45.9589 397.82 45.9589C396.446 45.9589 395.333 47.0711 395.333 48.4432C395.333 49.8152 396.446 50.9274 397.82 50.9274Z" fill="white"/>
<path d="M367.441 138.865H188.231C187.351 138.864 186.507 138.515 185.885 137.893C185.263 137.272 184.913 136.429 184.912 135.55V91.1393C184.913 90.2603 185.263 89.4176 185.885 88.7961C186.507 88.1745 187.351 87.8249 188.231 87.8239H367.441C368.32 87.8249 369.164 88.1745 369.786 88.7961C370.408 89.4176 370.758 90.2603 370.759 91.1393V135.55C370.758 136.429 370.408 137.272 369.786 137.893C369.164 138.515 368.32 138.864 367.441 138.865ZM188.231 89.15C187.703 89.1506 187.197 89.3604 186.823 89.7333C186.45 90.1063 186.24 90.6119 186.24 91.1393V135.55C186.24 136.077 186.45 136.583 186.823 136.956C187.197 137.329 187.703 137.539 188.231 137.539H367.441C367.969 137.539 368.475 137.329 368.848 136.956C369.221 136.583 369.431 136.077 369.432 135.55V91.1393C369.431 90.6119 369.221 90.1062 368.848 89.7333C368.475 89.3604 367.969 89.1506 367.441 89.15L188.231 89.15Z" fill="#E6E6E6"/>
<path d="M216.077 125.146C223.543 125.146 229.596 119.099 229.596 111.641C229.596 104.182 223.543 98.1352 216.077 98.1352C208.611 98.1352 202.559 104.182 202.559 111.641C202.559 119.099 208.611 125.146 216.077 125.146Z" fill="#E6E6E6"/>
<path d="M247.299 102.637C247.002 102.637 246.709 102.694 246.435 102.807C246.162 102.92 245.913 103.086 245.703 103.295C245.494 103.504 245.327 103.752 245.214 104.026C245.1 104.299 245.042 104.592 245.042 104.888C245.042 105.184 245.1 105.477 245.214 105.75C245.327 106.023 245.494 106.272 245.703 106.481C245.913 106.69 246.162 106.856 246.435 106.968C246.709 107.081 247.002 107.139 247.299 107.139H353.516C354.114 107.139 354.687 106.902 355.109 106.479C355.532 106.057 355.769 105.485 355.769 104.888C355.769 104.291 355.532 103.718 355.109 103.296C354.687 102.874 354.114 102.637 353.516 102.637H247.299Z" fill="#E6E6E6"/>
<path d="M247.298 116.142C246.7 116.142 246.127 116.379 245.705 116.802C245.282 117.224 245.045 117.796 245.045 118.393C245.045 118.99 245.282 119.563 245.705 119.985C246.127 120.407 246.7 120.644 247.298 120.644H293.004C293.601 120.644 294.174 120.407 294.597 119.985C295.019 119.563 295.257 118.99 295.257 118.393C295.257 117.796 295.019 117.224 294.597 116.802C294.174 116.379 293.601 116.142 293.004 116.142H247.298Z" fill="#E6E6E6"/>
<path d="M148.211 117.053L115.082 134.648L114.663 119.985C125.476 118.182 135.763 115.042 145.275 109.931L148.74 101.379C149.118 100.447 149.731 99.6298 150.521 99.0064C151.31 98.383 152.248 97.9754 153.243 97.8237C154.238 97.6719 155.255 97.7812 156.195 98.1408C157.134 98.5004 157.964 99.0979 158.603 99.8747C159.538 101.011 160.005 102.46 159.91 103.928C159.815 105.396 159.165 106.773 158.092 107.78L148.211 117.053Z" fill="#FFB8B8"/>
<path d="M67.2644 218.641C67.0227 217.756 66.9714 216.829 67.1139 215.922C67.2563 215.016 67.5892 214.149 68.0908 213.38L75.3681 202.223C77.0894 199.584 79.7305 197.678 82.7791 196.874C85.8277 196.071 89.0664 196.427 91.8667 197.874C88.8083 203.075 89.2346 207.638 92.923 211.603C87.1973 214.395 81.9053 217.999 77.2112 222.304C76.3542 222.887 75.3701 223.258 74.3407 223.385C73.3113 223.511 72.2666 223.39 71.2934 223.032C70.3202 222.674 69.4469 222.088 68.7461 221.325C68.0452 220.561 67.5372 219.641 67.2644 218.641Z" fill="#2F2E41"/>
<path d="M149.719 204.053C148.618 205.886 147.063 207.406 145.205 208.467C143.346 209.527 141.246 210.093 139.106 210.109L90.7598 210.475L88.6631 198.326L110.05 192.042L92.0178 178.217L111.727 155.176L147.525 188.508C149.617 190.456 150.977 193.063 151.376 195.892C151.776 198.722 151.191 201.602 149.719 204.053Z" fill="#2F2E41"/>
<path d="M83.2119 287.14H71.8895C61.7237 217.526 51.3759 147.717 81.9538 121.661L118.018 127.526L113.405 158.108L93.2762 181.15L83.2119 287.14Z" fill="#2F2E41"/>
<path d="M93.1642 302.909C92.2778 303.151 91.3504 303.202 90.4427 303.06C89.5351 302.918 88.6679 302.585 87.8981 302.084L75.6044 300.433C72.9627 298.714 71.0545 296.075 70.2501 293.03C69.4456 289.984 69.8022 286.749 71.2507 283.951C76.4569 287.006 81.024 286.58 84.9927 282.895C87.7969 288.552 92.4171 288.207 96.8297 292.972C97.414 293.828 97.785 294.811 97.9119 295.84C98.0388 296.868 97.9179 297.912 97.5593 298.884C97.2007 299.856 96.6147 300.729 95.8502 301.429C95.0857 302.129 94.1648 302.637 93.1642 302.909Z" fill="#2F2E41"/>
<path d="M110.05 75.1595L89.083 70.1323C92.5653 63.0113 92.8521 55.0877 91.1797 46.6721L105.437 46.2531C105.884 56.7181 107.236 66.4951 110.05 75.1595Z" fill="#FFB8B8"/>
<path d="M115.813 140.14C100.549 150.531 89.7646 140.496 81.5346 125.013C82.6782 115.538 80.8265 104.201 77.397 91.8813C75.8718 86.4476 76.4413 80.6401 78.9929 75.6053C81.5445 70.5706 85.8929 66.6745 91.1795 64.6862L109.211 72.227C124.523 84.6951 127.536 98.2005 121.792 112.445L115.813 140.14Z" fill="#212737"/>
<path d="M71.889 85.6328L55.1152 94.4304L84.8887 112.026L89.0315 122.234C89.308 122.916 89.4428 123.646 89.4274 124.381C89.4121 125.117 89.2471 125.841 88.9424 126.51C88.6378 127.179 88.1999 127.78 87.6554 128.274C87.1109 128.769 86.4713 129.148 85.7755 129.388C84.9846 129.66 84.1413 129.746 83.3117 129.638C82.482 129.531 81.6885 129.233 80.9933 128.768C80.2982 128.303 79.7202 127.684 79.3046 126.958C78.8891 126.233 78.6473 125.421 78.5982 124.587L78.1792 117.472L40.3374 104.996C39.0624 104.576 37.8999 103.871 36.9379 102.936C35.9758 102 35.2396 100.858 34.7848 99.5959C34.1219 97.7563 34.0881 95.7491 34.6888 93.8884C35.2895 92.0276 36.4907 90.4183 38.1045 89.3122L68.5343 68.4566L71.889 85.6328Z" fill="#FFB8B8"/>
<path d="M88.6632 87.3086C81.6675 84.2458 75.3061 87.5729 67.2766 90.2411L66.0186 68.0377C73.9915 63.7924 81.5932 62.6478 88.6632 65.943L88.6632 87.3086Z" fill="#212737"/>
<path d="M97.0313 57.2513C104.425 57.2513 110.418 51.2637 110.418 43.8776C110.418 36.4916 104.425 30.504 97.0313 30.504C89.638 30.504 83.6445 36.4916 83.6445 43.8776C83.6445 51.2637 89.638 57.2513 97.0313 57.2513Z" fill="#FFB8B8"/>
<path d="M113.047 42.1902C99.7925 43.4871 89.693 41.3216 83.2383 35.1556V30.19H111.922L113.047 42.1902Z" fill="#2F2E41"/>
</svg>
